<svg width="100%" height="300" viewBox="0 0 1032.23 300" xmlns="http://www.w3.org/2000/svg" xmlns:svg="http://www.w3.org/2000/svg"
  xmlns:xlink="http://www.w3.org/1999/xlink">
 <defs>
  <radialGradient id="red_grad">
   <stop stop-color="#F15A24" offset="0%"/>
   <stop stop-color="#8B0018" offset="100%"/>
  </radialGradient>
  <radialGradient id="green_grad">
   <stop stop-color="#00DBBA" offset="0%"/>
   <stop stop-color="#006961" offset="100%"/>
  </radialGradient>
  <radialGradient id="grey_grad">
   <stop stop-color="#B3B3B3" offset="0%"/>
   <stop stop-color="#3B3B3B" offset="100%"/>
  </radialGradient>
  <pattern height="100" width="100" y="0" x="0" patternUnits="userSpaceOnUse" id="gridpattern">
   <image height="100" width="100" y="0" x="0"/>
  </pattern>
 </defs>
 <g id="maintenance-text">
   <text y="50%" x="50%" text-anchor="middle">профилактика</text>
 </g>
 <g id="main-group">
  <title>Layer 1</title>
  <polyline stroke="#002D8E" fill="none" stroke-miterlimit="10" points="79.02693939208984,31.25 79.02693939208984,4.25 1005.0269775390625,4.25 " id="svg_341"/>
  <polyline fill="none" stroke="#002D8E" stroke-miterlimit="10" points="35.77693557739258,280.0009765625 35.77693557739258,159.5 122.27693939208984,159.5 122.27693939208984,280.0009765625 " id="svg_1"/>
  <g id="svg_86">
   <rect x="742.19193" y="29.084" fill="#A1A1A1" width="12.5" height="64.167" id="svg_87"/>
   <rect x="744.69193" y="29.084" fill="#E4E5E6" width="12.5" height="12.5" id="svg_88"/>
   <rect x="744.69193" y="80.75" fill="#E4E5E6" width="12.5" height="12.5" id="svg_89"/>
   <rect x="746.69193" y="41.417" fill="#E4E5E6" width="12.5" height="39.333" id="svg_90"/>
   <g id="svg_91">
    <rect x="748.06693" y="42.996" width="9.89" height="9.888" id="svg_92"/>
    <rect x="748.62793" y="43.556" fill="#BABABA" width="8.769" height="8.77" id="svg_93"/>
    <rect x="749.09393" y="44.022" fill="#BABABA" width="7.837" height="7.836" id="svg_94"/>
   </g>
   <polygon fill="#0E0C0D" points="759.3579711914062,56.756996154785156 747.8579711914062,56.756996154785156 747.8579711914062,61.204002380371094 749.2399291992188,61.204002380371094 749.2399291992188,68.40999603271484 756.5999755859375,68.40999603271484 756.5999755859375,61.204002380371094 759.3579711914062,61.204002380371094 " id="svg_95"/>
   <circle fill="#718C10" cx="750.94193" cy="35.334" r="2.5" id="svg_96"/>
   <circle fill="#718C10" cx="750.94193" cy="87" r="2.5" id="svg_97"/>
  </g>
  <g id="svg_98">
   <rect x="819.19193" y="29.084" fill="#A1A1A1" width="12.5" height="64.167" id="svg_99"/>
   <rect x="821.69193" y="29.084" fill="#E4E5E6" width="12.5" height="12.5" id="svg_100"/>
   <rect x="821.69193" y="80.75" fill="#E4E5E6" width="12.5" height="12.5" id="svg_101"/>
   <rect x="823.69193" y="41.417" fill="#E4E5E6" width="12.5" height="39.333" id="svg_102"/>
   <g id="svg_103">
    <rect x="825.06693" y="42.996" width="9.89" height="9.888" id="svg_104"/>
    <rect x="825.62793" y="43.556" fill="#BABABA" width="8.769" height="8.77" id="svg_105"/>
    <rect x="826.09393" y="44.022" fill="#BABABA" width="7.837" height="7.836" id="svg_106"/>
   </g>
   <polygon fill="#0E0C0D" points="836.3579711914062,56.756996154785156 824.8579711914062,56.756996154785156 824.8579711914062,61.204002380371094 826.2399291992188,61.204002380371094 826.2399291992188,68.40999603271484 833.5999755859375,68.40999603271484 833.5999755859375,61.204002380371094 836.3579711914062,61.204002380371094 " id="svg_107"/>
   <circle fill="#718C10" cx="827.94193" cy="35.334" r="2.5" id="svg_108"/>
   <circle fill="#718C10" cx="827.94193" cy="87" r="2.5" id="svg_109"/>
  </g>
  <g id="svg_110">
   <rect x="896.19193" y="29.084" fill="#A1A1A1" width="12.5" height="64.167" id="svg_111"/>
   <rect x="898.69193" y="29.084" fill="#E4E5E6" width="12.5" height="12.5" id="svg_112"/>
   <rect x="898.69193" y="80.75" fill="#E4E5E6" width="12.5" height="12.5" id="svg_113"/>
   <rect x="900.69193" y="41.417" fill="#E4E5E6" width="12.5" height="39.333" id="svg_114"/>
   <g id="svg_115">
    <rect x="902.06693" y="42.996" width="9.89" height="9.888" id="svg_116"/>
    <rect x="902.62893" y="43.556" fill="#BABABA" width="8.768" height="8.77" id="svg_117"/>
    <rect x="903.09393" y="44.022" fill="#BABABA" width="7.838" height="7.836" id="svg_118"/>
   </g>
   <polygon fill="#0E0C0D" points="913.3579711914062,56.756996154785156 901.8579711914062,56.756996154785156 901.8579711914062,61.204002380371094 903.2399291992188,61.204002380371094 903.2399291992188,68.40999603271484 910.5999755859375,68.40999603271484 910.5999755859375,61.204002380371094 913.3579711914062,61.204002380371094 " id="svg_119"/>
   <circle fill="#718C10" cx="904.94193" cy="35.334" r="2.5" id="svg_120"/>
   <circle fill="#718C10" cx="904.94193" cy="87" r="2.5" id="svg_121"/>
  </g>
  <g id="svg_122">
   <rect x="973.19193" y="29.084" fill="#A1A1A1" width="12.5" height="64.167" id="svg_123"/>
   <rect x="975.69193" y="29.084" fill="#E4E5E6" width="12.5" height="12.5" id="svg_124"/>
   <rect x="975.69193" y="80.75" fill="#E4E5E6" width="12.5" height="12.5" id="svg_125"/>
   <rect x="977.69193" y="41.417" fill="#E4E5E6" width="12.5" height="39.333" id="svg_126"/>
   <g id="svg_127">
    <rect x="979.06693" y="42.996" width="9.89" height="9.888" id="svg_128"/>
    <rect x="979.62893" y="43.556" fill="#BABABA" width="8.768" height="8.77" id="svg_129"/>
    <rect x="980.09393" y="44.022" fill="#BABABA" width="7.838" height="7.836" id="svg_130"/>
   </g>
   <polygon fill="#0E0C0D" points="990.3579711914062,56.756996154785156 978.8579711914062,56.756996154785156 978.8579711914062,61.204002380371094 980.2399291992188,61.204002380371094 980.2399291992188,68.40999603271484 987.5999755859375,68.40999603271484 987.5999755859375,61.204002380371094 990.3579711914062,61.204002380371094 " id="svg_131"/>
   <circle fill="#718C10" cx="981.94193" cy="35.334" r="2.5" id="svg_132"/>
   <circle fill="#718C10" cx="981.94193" cy="87" r="2.5" id="svg_133"/>
  </g>
  <g id="svg_134">
   <rect x="110.44493" y="165.084" fill="#A1A1A1" width="16.396" height="84.167" id="svg_135"/>
   <rect x="113.72393" y="165.084" fill="#E4E5E6" width="16.396" height="16.396" id="svg_136"/>
   <rect x="113.72393" y="232.854" fill="#E4E5E6" width="16.396" height="16.396" id="svg_137"/>
   <rect x="116.34793" y="181.261" fill="#E4E5E6" width="16.396" height="51.592" id="svg_138"/>
   <g id="svg_139">
    <rect x="118.14993" y="183.332" width="12.97" height="12.97" id="svg_140"/>
    <rect x="118.88393" y="184.067" fill="#BABABA" width="11.502" height="11.502" id="svg_141"/>
    <rect x="119.49593" y="184.678" fill="#BABABA" width="10.279" height="10.279" id="svg_142"/>
   </g>
   <polygon fill="#0E0C0D" points="132.96192932128906,201.3830108642578 117.87693786621094,201.3830108642578 117.87693786621094,207.2150115966797 119.68693542480469,207.2150115966797 119.68693542480469,216.66700744628906 129.34092712402344,216.66700744628906 129.34092712402344,207.2150115966797 132.96192932128906,207.2150115966797 " id="svg_143"/>
   <circle fill="#718C10" cx="121.92193" cy="173.282" r="3.279" id="svg_144"/>
   <circle fill="#718C10" cx="121.92193" cy="241.052" r="3.279" id="svg_145"/>
  </g>
  <g id="svg_146">
   <rect x="24.44493" y="165.084" fill="#A1A1A1" width="16.396" height="84.167" id="svg_147"/>
   <rect x="27.72393" y="165.084" fill="#E4E5E6" width="16.396" height="16.396" id="svg_148"/>
   <rect x="27.72393" y="232.854" fill="#E4E5E6" width="16.396" height="16.396" id="svg_149"/>
   <rect x="30.34793" y="181.261" fill="#E4E5E6" width="16.396" height="51.592" id="svg_150"/>
   <g id="svg_151">
    <rect x="32.14993" y="183.332" width="12.97" height="12.97" id="svg_152"/>
    <rect x="32.88393" y="184.067" fill="#BABABA" width="11.502" height="11.502" id="svg_153"/>
    <rect x="33.49593" y="184.678" fill="#BABABA" width="10.279" height="10.279" id="svg_154"/>
   </g>
   <polygon fill="#0E0C0D" points="46.961936950683594,201.3830108642578 31.876935958862305,201.3830108642578 31.876935958862305,207.2150115966797 33.68693542480469,207.2150115966797 33.68693542480469,216.66700744628906 43.34093475341797,216.66700744628906 43.34093475341797,207.2150115966797 46.961936950683594,207.2150115966797 " id="svg_155"/>
   <circle fill="#718C10" cx="35.92193" cy="173.282" r="3.279" id="svg_156"/>
   <circle fill="#718C10" cx="35.92193" cy="241.052" r="3.279" id="svg_157"/>
  </g>
  <g id="svg_174">
   <text transform="matrix(1,0,0,1,28.6489,171.0212) " fill="#666666" font-family="&#x27;Tahoma'" font-size="10.2435" id="svg_175" y="-22.734" x="-4.20407">QF</text>
  </g>
  <g id="svg_176">
   <text transform="matrix(1,0,0,1,107.5396,102.0203) " fill="#666666" font-family="&#x27;Tahoma'" font-size="10.2435" id="svg_177" y="-22.734" x="-4.20407">Меркурий 230</text>
  </g>
  <g id="svg_204">
   <text transform="matrix(1,0,0,1,740.1221,316.9265) " fill="#666666" font-family="&#x27;Tahoma'" font-size="10.2435" id="svg_205" y="-22.734" x="-4.20407">ШУНО</text>
  </g>
  <g id="svg_206">
   <text transform="matrix(1,0,0,1,721.8721,233.1882) " fill="#666666" font-family="&#x27;Tahoma'" font-size="10.2435" id="svg_207" y="-22.734" x="-4.20407">фА</text>
  </g>
  <g id="svg_208">
   <text transform="matrix(1,0,0,1,739.54,233.1882) " fill="#666666" font-family="&#x27;Tahoma'" font-size="10.2435" id="svg_209" y="-22.734" x="-4.20407">фВ</text>
  </g>
  <g id="svg_210">
   <text transform="matrix(1,0,0,1,757.7061,233.1882) " fill="#666666" font-family="&#x27;Tahoma'" font-size="10.2435" id="svg_211" y="-22.734" x="-4.20407">фС</text>
  </g>
  <g id="svg_212">
   <text transform="matrix(1,0,0,1,811.3701,316.9265) " fill="#666666" font-family="&#x27;Tahoma'" font-size="10.2435" id="svg_213" y="-22.734" x="-4.20407">ПЭФ-301</text>
  </g>
  <g id="svg_214">
   <text transform="matrix(1,0,0,1,899.0752,316.9265) " fill="#666666" font-family="&#x27;Tahoma'" font-size="10.2435" id="svg_215" y="-22.734" x="-4.20407">УПД</text>
  </g>
  <g id="svg_216">
   <text transform="matrix(1,0,0,1,959.958,316.8552) " fill="#666666" font-family="&#x27;Tahoma'" font-size="10.2435" id="svg_217" y="-22.734" x="-4.20407">Резерв с.н.</text>
  </g>
  <g id="svg_218">
   <text transform="matrix(1,0,0,1,724.1816,102.0212) " fill="#666666" font-family="&#x27;Tahoma'" font-size="10.2435" id="svg_219" y="-22.734" x="-4.20407">QF
                                                    8</text>
  </g>
  <g id="svg_220">
   <text transform="matrix(1,0,0,1,801.1816,102.0212) " fill="#666666" font-family="&#x27;Tahoma'" font-size="10.2435" id="svg_221" y="-22.734" x="-4.20407">QF
                                                      9</text>
  </g>
  <g id="svg_222">
   <text transform="matrix(1,0,0,1,872.5898,102.0212) " fill="#666666" font-family="&#x27;Tahoma'" font-size="10.2435" id="svg_223" y="-22.734" x="-4.20407">QF
                                                        10</text>
  </g>
  <g id="svg_224">
   <text transform="matrix(1,0,0,1,949.5898,102.0212) " fill="#666666" font-family="&#x27;Tahoma'" font-size="10.2435" id="svg_225" y="-22.734" x="-4.20407">QF
                                                          11</text>
  </g>
  <g id="svg_282">
   <path fill="#002D8E" d="m768.02698,160.5l0,61l-34.5,0l0,-61l34.5,0m1,-1l-36.5,0l0,63l36.5,0l0,-63l0,0z" id="svg_283"/>
  </g>
  <g id="svg_284">
   <path fill="#002D8E" d="m774.52698,283.25l0,15.25l-47.5,0l0,-15.25l47.5,0m1,-1l-49.5,0l0,17.25l49.5,0l0,-17.25l0,0z" id="svg_285"/>
  </g>
  <g id="svg_286">
   <path fill="#002D8E" d="m851.52698,283.25l0,15.25l-47.5,0l0,-15.25l47.5,0m1,-1l-49.5,0l0,17.25l49.5,0l0,-17.25l0,0z" id="svg_287"/>
  </g>
  <g id="svg_288">
   <path fill="#002D8E" d="m928.52698,283.25l0,15.25l-47.5,0l0,-15.25l47.5,0m1,-1l-49.5,0l0,17.25l49.5,0l0,-17.25l0,0z" id="svg_289"/>
  </g>
  <line fill="none" stroke="#002D8E" stroke-miterlimit="10" x1="750.77693" y1="92.75" x2="750.77693" y2="283" id="svg_290"/>
  <line fill="none" stroke="#002D8E" stroke-miterlimit="10" x1="827.77693" y1="92.75" x2="827.77693" y2="283" id="svg_291"/>
  <line fill="none" stroke="#002D8E" stroke-miterlimit="10" x1="904.77693" y1="92.75" x2="904.77693" y2="283" id="svg_299"/>
  <line fill="none" stroke="#002D8E" stroke-miterlimit="10" x1="981.77693" y1="92.75" x2="981.77693" y2="283" id="svg_300"/>
  <line fill="none" stroke="#002D8E" stroke-miterlimit="10" x1="750.77693" y1="6.25" x2="750.77693" y2="29" id="svg_301"/>
  <line fill="none" stroke="#002D8E" stroke-miterlimit="10" x1="827.77693" y1="6.25" x2="827.77693" y2="29" id="svg_302"/>
  <line fill="none" stroke="#002D8E" stroke-miterlimit="10" x1="904.77693" y1="6.25" x2="904.77693" y2="29" id="svg_303"/>
  <line fill="none" stroke="#002D8E" stroke-miterlimit="10" x1="981.77693" y1="6.25" x2="981.77693" y2="29" id="svg_304"/>
  <circle fill="#002883" cx="750.77693" cy="3.75" r="3.75" id="svg_319"/>
  <circle fill="#002883" cx="827.77693" cy="3.75" r="3.75" id="svg_320"/>
  <circle fill="#002883" cx="904.77693" cy="3.75" r="3.75" id="svg_321"/>
  <circle fill="#002883" cx="981.77693" cy="3.75" r="3.75" id="svg_322"/>
  <line fill="none" stroke="#002D8E" stroke-miterlimit="10" x1="743.08993" y1="142" x2="758.46493" y2="126.625" id="svg_323"/>
  <line fill="none" stroke="#002D8E" stroke-miterlimit="10" x1="743.08993" y1="136.375" x2="758.46493" y2="121" id="svg_324"/>
  <line fill="none" stroke="#002D8E" stroke-miterlimit="10" x1="743.08993" y1="130.75" x2="758.46493" y2="115.375" id="svg_325"/>
  <line fill="none" stroke="#002D8E" stroke-miterlimit="10" x1="743.08993" y1="266.75" x2="758.46493" y2="251.375" id="svg_326"/>
  <line fill="none" stroke="#002D8E" stroke-miterlimit="10" x1="743.08993" y1="261.125" x2="758.46493" y2="245.75" id="svg_327"/>
  <line fill="none" stroke="#002D8E" stroke-miterlimit="10" x1="743.08993" y1="255.5" x2="758.46493" y2="240.125" id="svg_328"/>
  <line fill="none" stroke="#002D8E" stroke-miterlimit="10" x1="79.02693" y1="89.751" x2="79.02693" y2="280.001" id="svg_329"/>
  <line fill="none" stroke="#002D8E" stroke-miterlimit="10" x1="71.33993" y1="147.334" x2="86.71493" y2="131.959" id="svg_330"/>
  <line fill="none" stroke="#002D8E" stroke-miterlimit="10" x1="71.33993" y1="141.709" x2="86.71493" y2="126.334" id="svg_331"/>
  <line fill="none" stroke="#002D8E" stroke-miterlimit="10" x1="71.33993" y1="136.084" x2="86.71493" y2="120.709" id="svg_332"/>
  <g id="svg_333">
   <circle fill="url(#grey_grad)" cx="79.02693" cy="109.917" r="6.562" id="svg_334"/>
  </g>
  <g id="svg_335">
   <text transform="matrix(1,0,0,1,32.5396,316.8552) " fill="#666666" font-family="&#x27;Tahoma'" font-size="10.2435" id="svg_336" y="-22.734" x="-4.20407">фА</text>
  </g>
  <g id="svg_337">
   <text transform="matrix(1,0,0,1,76.3218,316.8552) " fill="#666666" font-family="&#x27;Tahoma'" font-size="10.2435" id="svg_338" y="-22.734" x="-4.20407">фВ</text>
  </g>
  <g id="svg_339">
   <text transform="matrix(1,0,0,1,119.04,316.8552) " fill="#666666" font-family="&#x27;Tahoma'" font-size="10.2435" id="svg_340" y="-22.734" x="-4.20407">фС</text>
  </g>
  <g id="svg_342">
   <rect x="56.43193" y="30.473" fill="#B3B3BD" width="38.013" height="60.106" id="svg_343"/>
   <rect x="60.29693" y="30.473" fill="#6B6B70" width="40.222" height="31.062" id="svg_344"/>
   <rect x="59.68793" y="30.473" fill="#7A7A80" width="0.615" height="31.062" id="svg_345"/>
   <rect x="62.87393" y="61.536" fill="#5D5D61" width="38.749" height="1.013" id="svg_346"/>
   <rect x="59.68793" y="61.536" fill="#7A7A80" width="3.061" height="1.013" id="svg_347"/>
   <rect x="62.87393" y="62.549" fill="#94949C" width="38.749" height="7.408" id="svg_348"/>
   <rect x="60.29693" y="69.957" fill="#94949C" width="39.854" height="14.365" id="svg_349"/>
   <polygon fill="#94949C" points="96.09993743896484,90.5790023803711 60.29693603515625,90.5790023803711 60.29693603515625,84.4010009765625 100.14993286132812,84.4010009765625 " id="svg_350"/>
   <g id="svg_351">
    <polygon fill="#828287" points="65.54693603515625,85.75799560546875 64.39393615722656,85.75799560546875 65.54693603515625,69.95700073242188 68.03193664550781,69.95700073242188 " id="svg_352"/>
    <polygon fill="#A4A4AB" points="64.39393615722656,85.75799560546875 64.39393615722656,69.95700073242188 66.87893676757812,69.95700073242188 " id="svg_353"/>
   </g>
   <g id="svg_354">
    <polygon fill="#828287" points="69.54093933105469,85.75799560546875 68.387939453125,85.75799560546875 69.54093933105469,69.95700073242188 72.02693939208984,69.95700073242188 " id="svg_355"/>
    <polygon fill="#A4A4AB" points="68.387939453125,85.75799560546875 68.387939453125,69.95700073242188 70.87294006347656,69.95700073242188 " id="svg_356"/>
   </g>
   <g id="svg_357">
    <polygon fill="#828287" points="73.53593444824219,85.75799560546875 72.3819351196289,85.75799560546875 73.53593444824219,69.95700073242188 76.02193450927734,69.95700073242188 " id="svg_358"/>
    <polygon fill="#A4A4AB" points="72.3819351196289,85.75799560546875 72.3819351196289,69.95700073242188 74.86693572998047,69.95700073242188 " id="svg_359"/>
   </g>
   <g id="svg_360">
    <polygon fill="#828287" points="77.52993774414062,85.75799560546875 76.37593841552734,85.75799560546875 77.52993774414062,69.95700073242188 80.01693725585938,69.95700073242188 " id="svg_361"/>
    <polygon fill="#A4A4AB" points="76.37593841552734,85.75799560546875 76.37593841552734,69.95700073242188 78.8619384765625,69.95700073242188 " id="svg_362"/>
   </g>
   <g id="svg_363">
    <polygon fill="#828287" points="81.52493286132812,85.75799560546875 80.37093353271484,85.75799560546875 81.52493286132812,69.95700073242188 84.01093292236328,69.95700073242188 " id="svg_364"/>
    <polygon fill="#A4A4AB" points="80.37093353271484,85.75799560546875 80.37093353271484,69.95700073242188 82.8579330444336,69.95700073242188 " id="svg_365"/>
   </g>
   <g id="svg_366">
    <polygon fill="#828287" points="85.51993560791016,85.75799560546875 84.36593627929688,85.75799560546875 85.51993560791016,69.95700073242188 88.00493621826172,69.95700073242188 " id="svg_367"/>
    <polygon fill="#A4A4AB" points="84.36593627929688,85.75799560546875 84.36593627929688,69.95700073242188 86.85193634033203,69.95700073242188 " id="svg_368"/>
   </g>
   <g id="svg_369">
    <polygon fill="#828287" points="89.5139389038086,85.75799560546875 88.35993957519531,85.75799560546875 89.5139389038086,69.95700073242188 91.99993896484375,69.95700073242188 " id="svg_370"/>
    <polygon fill="#A4A4AB" points="88.35993957519531,85.75799560546875 88.35993957519531,69.95700073242188 90.84593963623047,69.95700073242188 " id="svg_371"/>
   </g>
   <g id="svg_372">
    <polygon fill="#828287" points="93.5089340209961,85.75799560546875 92.35493469238281,85.75799560546875 93.5089340209961,69.95700073242188 95.99393463134766,69.95700073242188 " id="svg_373"/>
    <polygon fill="#A4A4AB" points="92.35493469238281,85.75799560546875 92.35493469238281,69.95700073242188 94.84093475341797,69.95700073242188 " id="svg_374"/>
   </g>
   <g id="svg_375">
    <polygon fill="#828287" points="97.50293731689453,85.75799560546875 96.34993743896484,85.75799560546875 97.50293731689453,69.95700073242188 99.9879379272461,69.95700073242188 " id="svg_376"/>
    <polygon fill="#A4A4AB" points="96.34993743896484,85.75799560546875 96.34993743896484,69.95700073242188 98.8349380493164,69.95700073242188 " id="svg_377"/>
   </g>
   <rect x="64.25493" y="44.37" fill="#CDCDD5" width="32.306" height="14.633" id="svg_378"/>
   <rect x="64.25493" y="35.808" fill="#7B7B80" width="20.433" height="6.169" id="svg_379"/>
   <path fill="#424245" d="m96.69894,42.117l-9.021,0l0,-9.208l9.021,0l0,9.208l0,0zm-8.744,-0.277l8.467,0l0,-8.656l-8.467,0l0,8.656l0,0z" id="svg_380"/>
   <path fill="#424245" d="m84.7339,42.117l-20.617,0l0,-9.208l20.616,0l0.001,9.208l0,0l0,0l0,0l0,0zm-20.34,-0.277l20.063,0l0,-8.656l-20.063,0l0,8.656l0,0z" id="svg_381"/>
   <path fill="#424245" d="m96.04494,40.726l-3.54,0l0,-1.913l3.54,0l0,1.913l0,0zm-3.264,-0.277l2.987,0l0,-1.359l-2.987,0l0,1.359l0,0z" id="svg_382"/>
   <path fill="#424245" d="m91.95594,40.726l-3.541,0l0,-1.913l3.541,0l0,1.913l0,0zm-3.264,-0.277l2.987,0l0,-1.359l-2.987,0l0,1.359l0,0z" id="svg_383"/>
  </g>
  <g id="svg_573">
   <rect x="67.44493" y="165.084" fill="#A1A1A1" width="16.396" height="84.167" id="svg_574"/>
   <rect x="70.72393" y="165.084" fill="#E4E5E6" width="16.396" height="16.396" id="svg_575"/>
   <rect x="70.72393" y="232.854" fill="#E4E5E6" width="16.396" height="16.396" id="svg_576"/>
   <rect x="73.34793" y="181.261" fill="#E4E5E6" width="16.396" height="51.592" id="svg_577"/>
   <g id="svg_578">
    <rect x="75.14993" y="183.332" width="12.97" height="12.97" id="svg_579"/>
    <rect x="75.88393" y="184.067" fill="#BABABA" width="11.502" height="11.502" id="svg_580"/>
    <rect x="76.49593" y="184.678" fill="#BABABA" width="10.279" height="10.279" id="svg_581"/>
   </g>
   <polygon fill="#0E0C0D" points="89.9619369506836,201.3830108642578 74.87693786621094,201.3830108642578 74.87693786621094,207.2150115966797 76.68693542480469,207.2150115966797 76.68693542480469,216.66700744628906 86.34093475341797,216.66700744628906 86.34093475341797,207.2150115966797 89.9619369506836,207.2150115966797 " id="svg_582"/>
   <circle fill="#718C10" cx="78.92193" cy="173.282" r="3.279" id="svg_583"/>
   <circle fill="#718C10" cx="78.92193" cy="241.052" r="3.279" id="svg_584"/>
  </g>
  <g id="svg_585">
   <circle fill="url(#grey_grad)" cx="904.77693" cy="255.25" r="6.562" id="svg_586"/>
  </g>
  <g id="svg_587">
   <circle fill="url(#grey_grad)" cx="733.13093" cy="191" r="6.562" id="svg_588" class="phase phase-A"/>
  </g>
  <g id="svg_589">
   <circle fill="url(#grey_grad)" cx="750.77693" cy="191" r="6.562" id="svg_590" class="phase phase-B"/>
  </g>
  <g id="svg_591">
   <circle fill="url(#grey_grad)" cx="768.63193" cy="191" r="6.562" id="svg_592" class="phase phase-C"/>
  </g>
  <g id="svg_593" class="direction direction-1">
   <g id="svg_2">
    <rect x="203.19393" y="29.084" fill="#A1A1A1" width="12.5" height="64.167" id="svg_3"/>
    <rect x="205.69393" y="29.084" fill="#E4E5E6" width="12.5" height="12.5" id="svg_4"/>
    <rect x="205.69393" y="80.75" fill="#E4E5E6" width="12.5" height="12.5" id="svg_5"/>
    <rect x="207.69393" y="41.417" fill="#E4E5E6" width="12.5" height="39.333" id="svg_6"/>
    <g id="svg_7">
     <rect x="209.06893" y="42.996" width="9.888" height="9.888" id="svg_8"/>
     <rect x="209.62893" y="43.556" fill="#BABABA" width="8.769" height="8.77" id="svg_9"/>
     <rect x="210.09493" y="44.022" fill="#BABABA" width="7.836" height="7.836" id="svg_10"/>
    </g>
    <polygon fill="#0E0C0D" points="220.35992431640625,56.756996154785156 208.85992431640625,56.756996154785156 208.85992431640625,61.204002380371094 210.23992919921875,61.204002380371094 210.23992919921875,68.40999603271484 217.60092163085938,68.40999603271484 217.60092163085938,61.204002380371094 220.35992431640625,61.204002380371094 " id="svg_11"/>
    <circle fill="#718C10" cx="211.94393" cy="35.334" r="2.5" id="svg_12"/>
    <circle fill="#718C10" cx="211.94393" cy="87" r="2.5" id="svg_13"/>
   </g>
   <g id="svg_158">
    <text transform="matrix(1,0,0,1,185.1821,102.0212) " fill="#666666" font-family="&#x27;Tahoma'" font-size="10.2435" id="svg_159" y="-22.734" x="-4.20407">QF
          1</text>
   </g>
   <g id="svg_172">
    <text transform="matrix(1,0,0,1,191.1899,171.0212) " fill="#666666" font-family="&#x27;Tahoma'" font-size="10.2435" id="svg_173" y="-22.734" x="-4.20407">KM
                        1</text>
   </g>
   <g id="svg_190">
    <text transform="matrix(1,0,0,1,196.3945,316.8552) " fill="#666666" font-family="&#x27;Tahoma'" font-size="10.2435" id="svg_191" y="-22.734" x="-4.20407">ОП
                                      гр. 1</text>
   </g>
   <g id="svg_226">
    <g id="svg_227">
     <rect x="232.40193" y="197.477" fill="#F5F5F5" width="15" height="22.25" id="svg_228"/>
     <path fill="#8F8F8F" d="m246.90193,197.97701l0,21.25l-14,0l0,-21.25l14,0m1,-1l-16,0l0,23.25l16,0l0,-23.25l0,0z" id="svg_229"/>
    </g>
    <g id="svg_230">
     <line fill="none" stroke="#39B54A" stroke-miterlimit="10" x1="241.83993" y1="198.727" x2="241.83993" y2="205.977" id="svg_231"/>
     <polyline fill="none" stroke="#39B54A" stroke-miterlimit="10" points="241.83993530273438,218.7270050048828 241.83993530273438,213.7270050048828 235.6209259033203,207.5080108642578 " id="svg_232"/>
     <line fill="none" stroke="#39B54A" stroke-miterlimit="10" x1="240.21493" y1="205.977" x2="243.46493" y2="205.977" id="svg_233"/>
    </g>
   </g>
   <line fill="none" stroke="#002D8E" stroke-miterlimit="10" x1="211.77693" y1="92.75" x2="211.77693" y2="283" id="svg_298"/>
   <line fill="none" stroke="#002D8E" stroke-miterlimit="10" x1="211.77693" y1="6.25" x2="211.77693" y2="29" id="svg_308"/>
   <circle fill="#002883" class="direction-info direction-info-1" cx="211.77693" cy="3.75" r="3.75" id="svg_312"/>
   <g id="svg_384">
    <rect x="233.02693" y="166.588" width="16.821" height="16.821" id="svg_385"/>
    <rect x="233.97993" y="167.54" fill="#BABABA" width="14.917" height="14.917" id="svg_386"/>
    <rect x="234.77293" y="168.333" fill="#CFCF04" width="13.33" height="13.33" id="svg_387"/>
    <g id="svg_388">
     <polygon fill="#FFFFFF" points="240.44293212890625,169.87200927734375 241.61293029785156,169.87200927734375 241.61293029785156,174.4010009765625 241.61293029785156,169.4340057373047 242.7809295654297,169.4340057373047 242.7809295654297,174.4010009765625 242.7809295654297,169.87200927734375 243.94993591308594,169.87200927734375 243.94993591308594,174.4010009765625 243.94993591308594,170.74900817871094 245.11892700195312,170.74900817871094 245.11892700195312,178.31700134277344 244.2719268798828,179.13400268554688 244.2719268798828,180.56201171875 241.25192260742188,180.56201171875 241.25192260742188,179.13400268554688 239.84292602539062,178.16799926757812 238.16893005371094,175.177001953125 237.78892517089844,174.13400268554688 238.16893005371094,173.4040069580078 238.64993286132812,173.4040069580078 240.26092529296875,175.62001037597656 240.44293212890625,175.62001037597656 " id="svg_389"/>
     <path d="m244.629,180.92l-3.735,0l0,-1.59799l-1.32199,-0.90601l-1.71501,-3.064l-0.45798,-1.24301l0.55298,-1.062l0.879,0l1.25401,1.72501l0,-5.256l1.16899,0l0,-0.438l1.884,0l0,0.438l1.16901,0l0,0.877l1.16899,0l0,8.07799l-0.84799,0.81601l0.00099,1.633l0,0l0,0l0,0zm-3.02,-0.716l2.30502,0l0,-1.224l0.847,-0.815l0,-7.05899l-0.453,0l0,3.29501l-0.715,0l0,-4.17201l-0.45399,0l0,4.17201l-0.71501,0l0,-4.60899l-0.453,0l0,4.60899l-0.715,0l0,-4.17201l-0.45399,0l0,5.74699l-0.722,0l-1.612,-2.216l-0.08101,0l-0.20799,0.39801l0.326,0.89499l1.60899,2.86601l1.495,1.02299l0,1.26199l0,0l0,0l0,0l0,0l-0.00002,0z" id="svg_390"/>
    </g>
   </g>
   <g id="svg_433">
    <circle fill="url(#grey_grad)" cx="211.77693" cy="255.25" r="6.562" id="svg_434"/>
   </g>
   <g id="svg_447">
    <rect x="195.74893" y="171.904" fill="#424242" width="32.057" height="43.006" id="svg_448"/>
    <g id="svg_449">
     <polygon fill="#595959" points="197.33592224121094,215.14801025390625 195.74893188476562,220.2270050048828 195.74893188476562,166.5880126953125 197.33592224121094,171.66600036621094 " id="svg_450"/>
     <polygon fill="#595959" points="205.74693298339844,215.14801025390625 204.15992736816406,220.2270050048828 204.15992736816406,166.5880126953125 205.74693298339844,171.66600036621094 " id="svg_451"/>
     <polygon fill="#595959" points="226.21893310546875,215.14801025390625 227.80592346191406,220.2270050048828 227.80592346191406,166.5880126953125 226.21893310546875,171.66600036621094 " id="svg_452"/>
     <polygon fill="#595959" points="217.80792236328125,215.14801025390625 219.39492797851562,220.2270050048828 219.39492797851562,166.5880126953125 217.80792236328125,171.66600036621094 " id="svg_453"/>
    </g>
    <g id="svg_454">
     <polygon fill="#595959" points="212.919921875,166.5880126953125 212.1749267578125,166.5880126953125 212.1749267578125,168.6510009765625 211.3799285888672,168.6510009765625 211.3799285888672,166.5880126953125 210.53993225097656,166.5880126953125 209.71392822265625,171.66600036621094 209.71392822265625,215.14801025390625 210.53993225097656,220.2270050048828 211.3799285888672,220.2270050048828 211.3799285888672,218.4810028076172 212.1749267578125,218.4810028076172 212.1749267578125,220.2270050048828 212.919921875,220.2270050048828 213.83993530273438,215.14801025390625 213.83993530273438,171.66600036621094 " id="svg_455"/>
     <polygon points="195.0359344482422,168.1750030517578 194.24093627929688,168.1750030517578 194.24093627929688,166.5880126953125 193.5269317626953,166.5880126953125 193.5269317626953,220.2270050048828 194.24093627929688,220.2270050048828 194.24093627929688,218.4810028076172 195.0359344482422,218.4810028076172 195.0359344482422,220.2270050048828 195.74893188476562,220.2270050048828 195.74893188476562,166.5880126953125 195.0359344482422,166.5880126953125 " id="svg_456"/>
     <polygon points="203.44692993164062,168.1750030517578 202.6519317626953,168.1750030517578 202.6519317626953,166.5880126953125 201.93792724609375,166.5880126953125 201.93792724609375,220.2270050048828 202.6519317626953,220.2270050048828 202.6519317626953,218.4810028076172 203.44692993164062,218.4810028076172 203.44692993164062,220.2270050048828 204.15992736816406,220.2270050048828 204.15992736816406,166.5880126953125 203.44692993164062,166.5880126953125 " id="svg_457"/>
     <polygon points="212.1749267578125,168.1750030517578 211.3799285888672,168.1750030517578 211.3799285888672,166.5880126953125 210.53993225097656,166.5880126953125 210.53993225097656,220.2270050048828 211.3799285888672,220.2270050048828 211.3799285888672,218.4810028076172 212.1749267578125,218.4810028076172 212.1749267578125,220.2270050048828 212.919921875,220.2270050048828 212.919921875,166.5880126953125 212.1749267578125,166.5880126953125 " id="svg_458"/>
     <polygon points="220.9039306640625,168.1750030517578 220.10792541503906,168.1750030517578 220.10792541503906,166.5880126953125 219.39492797851562,166.5880126953125 219.39492797851562,220.2270050048828 220.10792541503906,220.2270050048828 220.10792541503906,218.4810028076172 220.9039306640625,218.4810028076172 220.9039306640625,220.2270050048828 221.61692810058594,220.2270050048828 221.61692810058594,166.5880126953125 220.9039306640625,166.5880126953125 " id="svg_459"/>
     <polygon points="230.0269317626953,166.5880126953125 229.31492614746094,166.5880126953125 229.31492614746094,168.1750030517578 228.51893615722656,168.1750030517578 228.51893615722656,166.5880126953125 227.80592346191406,166.5880126953125 227.80592346191406,220.2270050048828 228.51893615722656,220.2270050048828 228.51893615722656,218.4810028076172 229.31492614746094,218.4810028076172 229.31492614746094,220.2270050048828 230.0269317626953,220.2270050048828 " id="svg_460"/>
    </g>
    <rect x="195.74893" y="177.379" fill="#BABABA" width="32.057" height="32.057" id="svg_461"/>
    <rect x="203.36693" y="184.996" width="16.821" height="16.821" id="svg_462"/>
    <rect x="204.31893" y="185.949" fill="#BABABA" width="14.917" height="14.917" id="svg_463"/>
    <rect x="205.11193" y="186.742" fill="#BABABA" width="13.33" height="13.33" id="svg_464"/>
   </g>
  </g>
  <g id="svg_594" class="direction direction-2">
   <g id="svg_14">
    <rect x="280.19393" y="29.084" fill="#A1A1A1" width="12.5" height="64.167" id="svg_15"/>
    <rect x="282.69393" y="29.084" fill="#E4E5E6" width="12.5" height="12.5" id="svg_16"/>
    <rect x="282.69393" y="80.75" fill="#E4E5E6" width="12.5" height="12.5" id="svg_17"/>
    <rect x="284.69393" y="41.417" fill="#E4E5E6" width="12.5" height="39.333" id="svg_18"/>
    <g id="svg_19">
     <rect x="286.06893" y="42.996" width="9.888" height="9.888" id="svg_20"/>
     <rect x="286.62893" y="43.556" fill="#BABABA" width="8.769" height="8.77" id="svg_21"/>
     <rect x="287.09493" y="44.022" fill="#BABABA" width="7.836" height="7.836" id="svg_22"/>
    </g>
    <polygon fill="#0E0C0D" points="297.35992431640625,56.756996154785156 285.85992431640625,56.756996154785156 285.85992431640625,61.204002380371094 287.23992919921875,61.204002380371094 287.23992919921875,68.40999603271484 294.6009216308594,68.40999603271484 294.6009216308594,61.204002380371094 297.35992431640625,61.204002380371094 " id="svg_23"/>
    <circle fill="#718C10" cx="288.94393" cy="35.334" r="2.5" id="svg_24"/>
    <circle fill="#718C10" cx="288.94393" cy="87" r="2.5" id="svg_25"/>
   </g>
   <g id="svg_160">
    <text transform="matrix(1,0,0,1,262.1821,102.0212) " fill="#666666" font-family="&#x27;Tahoma'" font-size="10.2435" id="svg_161" y="-22.734" x="-4.20407">QF
            2</text>
   </g>
   <g id="svg_178">
    <text transform="matrix(1,0,0,1,268.1899,171.0212) " fill="#666666" font-family="&#x27;Tahoma'" font-size="10.2435" id="svg_179" y="-22.734" x="-4.20407">KM
                          2</text>
   </g>
   <g id="svg_192">
    <text transform="matrix(1,0,0,1,273.3945,316.8552) " fill="#666666" font-family="&#x27;Tahoma'" font-size="10.2435" id="svg_193" y="-22.734" x="-4.20407">ОП
                                        гр. 2</text>
   </g>
   <g id="svg_234">
    <g id="svg_235">
     <rect x="309.52693" y="197.477" fill="#F5F5F5" width="15" height="22.25" id="svg_236"/>
     <path fill="#8F8F8F" d="m324.02692,197.97701l0,21.25l-14,0l0,-21.25l14,0m1,-1l-16,0l0,23.25l16,0l0,-23.25l0,0z" id="svg_237"/>
    </g>
    <g id="svg_238">
     <line fill="none" stroke="#39B54A" stroke-miterlimit="10" x1="318.96493" y1="198.727" x2="318.96493" y2="205.977" id="svg_239"/>
     <polyline fill="none" stroke="#39B54A" stroke-miterlimit="10" points="318.9649353027344,218.7270050048828 318.9649353027344,213.7270050048828 312.7459411621094,207.5080108642578 " id="svg_240"/>
     <line fill="none" stroke="#39B54A" stroke-miterlimit="10" x1="317.33993" y1="205.977" x2="320.58993" y2="205.977" id="svg_241"/>
    </g>
   </g>
   <line fill="none" stroke="#002D8E" stroke-miterlimit="10" x1="288.77693" y1="92.75" x2="288.77693" y2="283" id="svg_297"/>
   <line fill="none" stroke="#002D8E" stroke-miterlimit="10" x1="288.77693" y1="6.25" x2="288.77693" y2="29" id="svg_309"/>
   <circle fill="#002883" class="direction-info direction-info-2" cx="288.77693" cy="3.75" r="3.75" id="svg_313"/>
   <g id="svg_391">
    <rect x="310.02693" y="166.588" width="16.82" height="16.821" id="svg_392"/>
    <rect x="310.97993" y="167.54" fill="#BABABA" width="14.917" height="14.917" id="svg_393"/>
    <rect x="311.77293" y="168.333" fill="#CFCF04" width="13.33" height="13.33" id="svg_394"/>
    <g id="svg_395">
     <polygon fill="#FFFFFF" points="317.44293212890625,169.87200927734375 318.6129150390625,169.87200927734375 318.6129150390625,174.4010009765625 318.6129150390625,169.4340057373047 319.7809143066406,169.4340057373047 319.7809143066406,174.4010009765625 319.7809143066406,169.87200927734375 320.9499206542969,169.87200927734375 320.9499206542969,174.4010009765625 320.9499206542969,170.74900817871094 322.1189270019531,170.74900817871094 322.1189270019531,178.31700134277344 321.2719421386719,179.13400268554688 321.2719421386719,180.56201171875 318.2519226074219,180.56201171875 318.2519226074219,179.13400268554688 316.8429260253906,178.16799926757812 315.1689147949219,175.177001953125 314.7889404296875,174.13400268554688 315.1689147949219,173.4040069580078 315.6499328613281,173.4040069580078 317.26092529296875,175.62001037597656 317.44293212890625,175.62001037597656 " id="svg_396"/>
     <path d="m321.629,180.92l-3.73499,0l0,-1.59799l-1.32101,-0.90601l-1.716,-3.064l-0.457,-1.24301l0.55301,-1.062l0.879,0l1.254,1.72501l0,-5.256l1.16901,0l0,-0.438l1.884,0l0,0.438l1.16904,0l0,0.877l1.16898,0l0,8.07799l-0.84799,0.81601l0,1.633l0,0l0,0l0,0l0,0l-0.00003,0zm-3.021,-0.716l2.306,0l0,-1.224l0.84698,-0.815l0,-7.05899l-0.45297,0l0,3.29501l-0.71503,0l0,-4.17201l-0.45398,0l0,4.17201l-0.715,0l0,-4.60899l-0.453,0l0,4.60899l-0.715,0l0,-4.17201l-0.45401,0l0,5.74699l-0.72205,0l-1.612,-2.216l-0.08096,0l-0.20804,0.39801l0.32605,0.89499l1.60901,2.86601l1.49399,1.02299l0,1.26199l0,0l0,0z" id="svg_397"/>
    </g>
   </g>
   <g id="svg_435">
    <circle fill="url(#grey_grad)" cx="288.77693" cy="255.25" r="6.562" id="svg_436"/>
   </g>
   <g id="svg_465">
    <rect x="272.74893" y="171.904" fill="#424242" width="32.057" height="43.006" id="svg_466"/>
    <g id="svg_467">
     <polygon fill="#595959" points="274.3359375,215.14801025390625 272.7489318847656,220.2270050048828 272.7489318847656,166.5880126953125 274.3359375,171.66600036621094 " id="svg_468"/>
     <polygon fill="#595959" points="282.7469177246094,215.14801025390625 281.1599426269531,220.2270050048828 281.1599426269531,166.5880126953125 282.7469177246094,171.66600036621094 " id="svg_469"/>
     <polygon fill="#595959" points="303.21893310546875,215.14801025390625 304.8059387207031,220.2270050048828 304.8059387207031,166.5880126953125 303.21893310546875,171.66600036621094 " id="svg_470"/>
     <polygon fill="#595959" points="294.80792236328125,215.14801025390625 296.3949279785156,220.2270050048828 296.3949279785156,166.5880126953125 294.80792236328125,171.66600036621094 " id="svg_471"/>
    </g>
    <g id="svg_472">
     <polygon fill="#595959" points="289.919921875,166.5880126953125 289.1749267578125,166.5880126953125 289.1749267578125,168.6510009765625 288.37994384765625,168.6510009765625 288.37994384765625,166.5880126953125 287.5399169921875,166.5880126953125 286.71392822265625,171.66600036621094 286.71392822265625,215.14801025390625 287.5399169921875,220.2270050048828 288.37994384765625,220.2270050048828 288.37994384765625,218.4810028076172 289.1749267578125,218.4810028076172 289.1749267578125,220.2270050048828 289.919921875,220.2270050048828 290.8399353027344,215.14801025390625 290.8399353027344,171.66600036621094 " id="svg_473"/>
     <polygon points="272.0359191894531,168.1750030517578 271.2409362792969,168.1750030517578 271.2409362792969,166.5880126953125 270.52691650390625,166.5880126953125 270.52691650390625,220.2270050048828 271.2409362792969,220.2270050048828 271.2409362792969,218.4810028076172 272.0359191894531,218.4810028076172 272.0359191894531,220.2270050048828 272.7489318847656,220.2270050048828 272.7489318847656,166.5880126953125 272.0359191894531,166.5880126953125 " id="svg_474"/>
     <polygon points="280.4469299316406,168.1750030517578 279.65191650390625,168.1750030517578 279.65191650390625,166.5880126953125 278.93792724609375,166.5880126953125 278.93792724609375,220.2270050048828 279.65191650390625,220.2270050048828 279.65191650390625,218.4810028076172 280.4469299316406,218.4810028076172 280.4469299316406,220.2270050048828 281.1599426269531,220.2270050048828 281.1599426269531,166.5880126953125 280.4469299316406,166.5880126953125 " id="svg_475"/>
     <polygon points="289.1749267578125,168.1750030517578 288.37994384765625,168.1750030517578 288.37994384765625,166.5880126953125 287.5399169921875,166.5880126953125 287.5399169921875,220.2270050048828 288.37994384765625,220.2270050048828 288.37994384765625,218.4810028076172 289.1749267578125,218.4810028076172 289.1749267578125,220.2270050048828 289.919921875,220.2270050048828 289.919921875,166.5880126953125 289.1749267578125,166.5880126953125 " id="svg_476"/>
     <polygon points="297.9039306640625,168.1750030517578 297.1079406738281,168.1750030517578 297.1079406738281,166.5880126953125 296.3949279785156,166.5880126953125 296.3949279785156,220.2270050048828 297.1079406738281,220.2270050048828 297.1079406738281,218.4810028076172 297.9039306640625,218.4810028076172 297.9039306640625,220.2270050048828 298.616943359375,220.2270050048828 298.616943359375,166.5880126953125 297.9039306640625,166.5880126953125 " id="svg_477"/>
     <polygon points="307.02691650390625,166.5880126953125 306.31494140625,166.5880126953125 306.31494140625,168.1750030517578 305.5189208984375,168.1750030517578 305.5189208984375,166.5880126953125 304.8059387207031,166.5880126953125 304.8059387207031,220.2270050048828 305.5189208984375,220.2270050048828 305.5189208984375,218.4810028076172 306.31494140625,218.4810028076172 306.31494140625,220.2270050048828 307.02691650390625,220.2270050048828 " id="svg_478"/>
    </g>
    <rect x="272.74893" y="177.379" fill="#BABABA" width="32.057" height="32.057" id="svg_479"/>
    <rect x="280.36693" y="184.996" width="16.821" height="16.821" id="svg_480"/>
    <rect x="281.31893" y="185.949" fill="#BABABA" width="14.917" height="14.917" id="svg_481"/>
    <rect x="282.11193" y="186.742" fill="#BABABA" width="13.331" height="13.33" id="svg_482"/>
   </g>
  </g>
  <g id="svg_595" class="direction direction-3">
   <g id="svg_26">
    <rect x="357.19393" y="29.084" fill="#A1A1A1" width="12.499" height="64.167" id="svg_27"/>
    <rect x="359.69393" y="29.084" fill="#E4E5E6" width="12.499" height="12.5" id="svg_28"/>
    <rect x="359.69393" y="80.75" fill="#E4E5E6" width="12.499" height="12.5" id="svg_29"/>
    <rect x="361.69293" y="41.417" fill="#E4E5E6" width="12.5" height="39.333" id="svg_30"/>
    <g id="svg_31">
     <rect x="363.06793" y="42.996" width="9.889" height="9.888" id="svg_32"/>
     <rect x="363.62793" y="43.556" fill="#BABABA" width="8.769" height="8.77" id="svg_33"/>
     <rect x="364.09393" y="44.022" fill="#BABABA" width="7.837" height="7.836" id="svg_34"/>
    </g>
    <polygon fill="#0E0C0D" class="direction-info direction-info-3" points="374.3579406738281,56.756996154785156 362.8579406738281,56.756996154785156 362.8579406738281,61.204002380371094 364.23992919921875,61.204002380371094 364.23992919921875,68.40999603271484 371.59991455078125,68.40999603271484 371.59991455078125,61.204002380371094 374.3579406738281,61.204002380371094 " id="svg_35"/>
    <circle fill="#718C10" cx="365.94293" cy="35.334" r="2.5" id="svg_36"/>
    <circle fill="#718C10" cx="365.94293" cy="87" r="2.5" id="svg_37"/>
   </g>
   <g id="svg_162">
    <text transform="matrix(1,0,0,1,339.1821,102.0212) " fill="#666666" font-family="&#x27;Tahoma'" font-size="10.2435" id="svg_163" y="-22.734" x="-4.20407">QF
              3</text>
   </g>
   <g id="svg_180">
    <text transform="matrix(1,0,0,1,345.1895,171.0212) " fill="#666666" font-family="&#x27;Tahoma'" font-size="10.2435" id="svg_181" y="-22.734" x="-4.20407">KM
                            3</text>
   </g>
   <g id="svg_194">
    <text transform="matrix(1,0,0,1,350.395,316.8552) " fill="#666666" font-family="&#x27;Tahoma'" font-size="10.2435" id="svg_195" y="-22.734" x="-4.20407">ОП
                                          гр. 3</text>
   </g>
   <g id="svg_242">
    <g id="svg_243">
     <rect x="386.52693" y="197.477" fill="#F5F5F5" width="15" height="22.25" id="svg_244"/>
     <path fill="#8F8F8F" d="m401.02692,197.97701l0,21.25l-14,0l0,-21.25l14,0m1,-1l-16,0l0,23.25l16,0l0,-23.25l0,0z" id="svg_245"/>
    </g>
    <g id="svg_246">
     <line fill="none" stroke="#39B54A" stroke-miterlimit="10" x1="395.96493" y1="198.727" x2="395.96493" y2="205.977" id="svg_247"/>
     <polyline fill="none" stroke="#39B54A" stroke-miterlimit="10" points="395.9649353027344,218.7270050048828 395.9649353027344,213.7270050048828 389.7459411621094,207.5080108642578 " id="svg_248"/>
     <line fill="none" stroke="#39B54A" stroke-miterlimit="10" x1="394.33993" y1="205.977" x2="397.58993" y2="205.977" id="svg_249"/>
    </g>
   </g>
   <line fill="none" stroke="#002D8E" stroke-miterlimit="10" x1="365.77693" y1="92.75" x2="365.77693" y2="283" id="svg_296"/>
   <line fill="none" stroke="#002D8E" stroke-miterlimit="10" x1="365.77693" y1="6.25" x2="365.77693" y2="29" id="svg_310"/>
   <circle fill="#002883" class="direction-info direction-info-3" cx="365.77693" cy="3.75" r="3.75" id="svg_314"/>
   <g id="svg_398">
    <rect x="387.02693" y="166.588" width="16.82" height="16.821" id="svg_399"/>
    <rect x="387.97993" y="167.54" fill="#BABABA" width="14.917" height="14.917" id="svg_400"/>
    <rect x="388.77393" y="168.333" fill="#CFCF04" width="13.33" height="13.33" id="svg_401"/>
    <g id="svg_402">
     <polygon fill="#FFFFFF" points="394.44293212890625,169.87200927734375 395.6129150390625,169.87200927734375 395.6129150390625,174.4010009765625 395.6129150390625,169.4340057373047 396.7809143066406,169.4340057373047 396.7809143066406,174.4010009765625 396.7809143066406,169.87200927734375 397.9499206542969,169.87200927734375 397.9499206542969,174.4010009765625 397.9499206542969,170.74900817871094 399.1189270019531,170.74900817871094 399.1189270019531,178.31700134277344 398.2719421386719,179.13400268554688 398.2719421386719,180.56201171875 395.2519226074219,180.56201171875 395.2519226074219,179.13400268554688 393.84393310546875,178.16799926757812 392.1689147949219,175.177001953125 391.7889404296875,174.13400268554688 392.1689147949219,173.4040069580078 392.6499328613281,173.4040069580078 394.26092529296875,175.62001037597656 394.44293212890625,175.62001037597656 " id="svg_403"/>
     <path d="m398.629,180.92l-3.73401,0l0,-1.59799l-1.32098,-0.90601l-1.71701,-3.064l-0.45801,-1.24301l0.55402,-1.062l0.88,0l1.255,1.72501l0,-5.256l1.16898,0l0,-0.438l1.884,0l0,0.438l1.17001,0l0,0.877l1.168,0l0,8.07799l-0.84799,0.81601l-0.00201,1.633l0,0l0,0zm-3.021,-0.716l2.306,0l0,-1.224l0.84799,-0.815l0,-7.05899l-0.453,0l0,3.29501l-0.716,0l0,-4.17201l-0.45398,0l0,4.17201l-0.715,0l0,-4.60899l-0.453,0l0,4.60899l-0.716,0l0,-4.17201l-0.45401,0l0,5.74699l-0.72198,0l-1.612,-2.216l-0.08002,0l-0.20801,0.39801l0.32602,0.89499l1.60901,2.86601l1.49399,1.02299l0,1.26199l0,0l0,0z" id="svg_404"/>
    </g>
   </g>
   <g id="svg_437">
    <circle fill="url(#grey_grad)" cx="365.77693" cy="255.25" r="6.562" id="svg_438"/>
   </g>
   <g id="svg_483">
    <rect x="349.74993" y="171.904" fill="#424242" width="32.056" height="43.006" id="svg_484"/>
    <g id="svg_485">
     <polygon fill="#595959" points="351.3369140625,215.14801025390625 349.74993896484375,220.2270050048828 349.74993896484375,166.5880126953125 351.3369140625,171.66600036621094 " id="svg_486"/>
     <polygon fill="#595959" points="359.7479248046875,215.14801025390625 358.1609191894531,220.2270050048828 358.1609191894531,166.5880126953125 359.7479248046875,171.66600036621094 " id="svg_487"/>
     <polygon fill="#595959" points="380.21893310546875,215.14801025390625 381.8059387207031,220.2270050048828 381.8059387207031,166.5880126953125 380.21893310546875,171.66600036621094 " id="svg_488"/>
     <polygon fill="#595959" points="371.80792236328125,215.14801025390625 373.3949279785156,220.2270050048828 373.3949279785156,166.5880126953125 371.80792236328125,171.66600036621094 " id="svg_489"/>
    </g>
    <g id="svg_490">
     <polygon fill="#595959" points="366.919921875,166.5880126953125 366.1749267578125,166.5880126953125 366.1749267578125,168.6510009765625 365.37994384765625,168.6510009765625 365.37994384765625,166.5880126953125 364.5399169921875,166.5880126953125 363.71392822265625,171.66600036621094 363.71392822265625,215.14801025390625 364.5399169921875,220.2270050048828 365.37994384765625,220.2270050048828 365.37994384765625,218.4810028076172 366.1749267578125,218.4810028076172 366.1749267578125,220.2270050048828 366.919921875,220.2270050048828 367.8409423828125,215.14801025390625 367.8409423828125,171.66600036621094 " id="svg_491"/>
     <polygon points="349.03692626953125,168.1750030517578 348.2409362792969,168.1750030517578 348.2409362792969,166.5880126953125 347.5279235839844,166.5880126953125 347.5279235839844,220.2270050048828 348.2409362792969,220.2270050048828 348.2409362792969,218.4810028076172 349.03692626953125,218.4810028076172 349.03692626953125,220.2270050048828 349.74993896484375,220.2270050048828 349.74993896484375,166.5880126953125 349.03692626953125,166.5880126953125 " id="svg_492"/>
     <polygon points="357.44793701171875,168.1750030517578 356.65191650390625,168.1750030517578 356.65191650390625,166.5880126953125 355.9389343261719,166.5880126953125 355.9389343261719,220.2270050048828 356.65191650390625,220.2270050048828 356.65191650390625,218.4810028076172 357.44793701171875,218.4810028076172 357.44793701171875,220.2270050048828 358.1609191894531,220.2270050048828 358.1609191894531,166.5880126953125 357.44793701171875,166.5880126953125 " id="svg_493"/>
     <polygon points="366.1749267578125,168.1750030517578 365.37994384765625,168.1750030517578 365.37994384765625,166.5880126953125 364.5399169921875,166.5880126953125 364.5399169921875,220.2270050048828 365.37994384765625,220.2270050048828 365.37994384765625,218.4810028076172 366.1749267578125,218.4810028076172 366.1749267578125,220.2270050048828 366.919921875,220.2270050048828 366.919921875,166.5880126953125 366.1749267578125,166.5880126953125 " id="svg_494"/>
     <polygon points="374.9029235839844,168.1750030517578 374.1079406738281,168.1750030517578 374.1079406738281,166.5880126953125 373.3949279785156,166.5880126953125 373.3949279785156,220.2270050048828 374.1079406738281,220.2270050048828 374.1079406738281,218.4810028076172 374.9029235839844,218.4810028076172 374.9029235839844,220.2270050048828 375.6159362792969,220.2270050048828 375.6159362792969,166.5880126953125 374.9029235839844,166.5880126953125 " id="svg_495"/>
     <polygon points="384.02691650390625,166.5880126953125 383.31494140625,166.5880126953125 383.31494140625,168.1750030517578 382.5189208984375,168.1750030517578 382.5189208984375,166.5880126953125 381.8059387207031,166.5880126953125 381.8059387207031,220.2270050048828 382.5189208984375,220.2270050048828 382.5189208984375,218.4810028076172 383.31494140625,218.4810028076172 383.31494140625,220.2270050048828 384.02691650390625,220.2270050048828 " id="svg_496"/>
    </g>
    <rect x="349.74993" y="177.379" fill="#BABABA" width="32.056" height="32.057" id="svg_497"/>
    <rect x="357.36693" y="184.996" width="16.82" height="16.821" id="svg_498"/>
    <rect x="358.31893" y="185.949" fill="#BABABA" width="14.916" height="14.917" id="svg_499"/>
    <rect x="359.11293" y="186.742" fill="#BABABA" width="13.329" height="13.33" id="svg_500"/>
   </g>
  </g>
  <g id="svg_596" class="direction direction-4">
   <g id="svg_38">
    <rect x="434.19293" y="29.084" fill="#A1A1A1" width="12.5" height="64.167" id="svg_39"/>
    <rect x="436.69293" y="29.084" fill="#E4E5E6" width="12.5" height="12.5" id="svg_40"/>
    <rect x="436.69293" y="80.75" fill="#E4E5E6" width="12.5" height="12.5" id="svg_41"/>
    <rect x="438.69293" y="41.417" fill="#E4E5E6" width="12.5" height="39.333" id="svg_42"/>
    <g id="svg_43">
     <rect x="440.06793" y="42.996" width="9.889" height="9.888" id="svg_44"/>
     <rect x="440.62793" y="43.556" fill="#BABABA" width="8.769" height="8.77" id="svg_45"/>
     <rect x="441.09393" y="44.022" fill="#BABABA" width="7.837" height="7.836" id="svg_46"/>
    </g>
    <polygon fill="#0E0C0D" points="451.3579406738281,56.756996154785156 439.8579406738281,56.756996154785156 439.8579406738281,61.204002380371094 441.23992919921875,61.204002380371094 441.23992919921875,68.40999603271484 448.59991455078125,68.40999603271484 448.59991455078125,61.204002380371094 451.3579406738281,61.204002380371094 " id="svg_47"/>
    <circle fill="#718C10" cx="442.94293" cy="35.334" r="2.5" id="svg_48"/>
    <circle fill="#718C10" cx="442.94293" cy="87" r="2.5" id="svg_49"/>
   </g>
   <g id="svg_164">
    <text transform="matrix(1,0,0,1,416.1816,102.0212) " fill="#666666" font-family="&#x27;Tahoma'" font-size="10.2435" id="svg_165" y="-22.734" x="-4.20407">QF
                4</text>
   </g>
   <g id="svg_182">
    <text transform="matrix(1,0,0,1,422.1904,171.0212) " fill="#666666" font-family="&#x27;Tahoma'" font-size="10.2435" id="svg_183" y="-22.734" x="-4.20407">KM
                              4</text>
   </g>
   <g id="svg_196">
    <text transform="matrix(1,0,0,1,427.3945,316.8552) " fill="#666666" font-family="&#x27;Tahoma'" font-size="10.2435" id="svg_197" y="-22.734" x="-4.20407">ОП
                                            гр. 4</text>
   </g>
   <g id="svg_250">
    <g id="svg_251">
     <rect x="463.52693" y="197.477" fill="#F5F5F5" width="15" height="22.25" id="svg_252"/>
     <path fill="#8F8F8F" d="m478.02692,197.97701l0,21.25l-14,0l0,-21.25l14,0m1,-1l-16,0l0,23.25l16,0l0,-23.25l0,0z" id="svg_253"/>
    </g>
    <g id="svg_254">
     <line fill="none" stroke="#39B54A" stroke-miterlimit="10" x1="472.96493" y1="198.727" x2="472.96493" y2="205.977" id="svg_255"/>
     <polyline fill="none" stroke="#39B54A" stroke-miterlimit="10" points="472.9649353027344,218.7270050048828 472.9649353027344,213.7270050048828 466.7459411621094,207.5080108642578 " id="svg_256"/>
     <line fill="none" stroke="#39B54A" stroke-miterlimit="10" x1="471.33993" y1="205.977" x2="474.58993" y2="205.977" id="svg_257"/>
    </g>
   </g>
   <line fill="none" stroke="#002D8E" stroke-miterlimit="10" x1="442.77693" y1="92.75" x2="442.77693" y2="283" id="svg_295"/>
   <line fill="none" stroke="#002D8E" stroke-miterlimit="10" x1="442.77693" y1="6.25" x2="442.77693" y2="29" id="svg_305"/>
   <circle fill="#002883" class="direction-info direction-info-4" cx="442.77693" cy="3.75" r="3.75" id="svg_315"/>
   <g id="svg_405">
    <rect x="464.02693" y="166.588" width="16.821" height="16.821" id="svg_406"/>
    <rect x="464.98093" y="167.54" fill="#BABABA" width="14.916" height="14.917" id="svg_407"/>
    <rect x="465.77393" y="168.333" fill="#CFCF04" width="13.33" height="13.33" id="svg_408"/>
    <g id="svg_409">
     <polygon fill="#FFFFFF" points="471.44293212890625,169.87200927734375 472.6129150390625,169.87200927734375 472.6129150390625,174.4010009765625 472.6129150390625,169.4340057373047 473.7809143066406,169.4340057373047 473.7809143066406,174.4010009765625 473.7809143066406,169.87200927734375 474.950927734375,169.87200927734375 474.950927734375,174.4010009765625 474.950927734375,170.74900817871094 476.1189270019531,170.74900817871094 476.1189270019531,178.31700134277344 475.2719421386719,179.13400268554688 475.2719421386719,180.56201171875 472.2519226074219,180.56201171875 472.2519226074219,179.13400268554688 470.84393310546875,178.16799926757812 469.169921875,175.177001953125 468.7889404296875,174.13400268554688 469.169921875,173.4040069580078 469.6499328613281,173.4040069580078 471.2619323730469,175.62001037597656 471.44293212890625,175.62001037597656 " id="svg_410"/>
     <path d="m475.629,180.92l-3.73401,0l0,-1.59799l-1.32098,-0.90601l-1.715,-3.064l-0.46002,-1.24301l0.55402,-1.062l0.88101,0l1.254,1.72501l0,-5.256l1.16998,0l0,-0.438l1.883,0l0,0.438l1.17001,0l0,0.877l1.168,0l0,8.07799l-0.84799,0.81601l-0.00201,1.633l0,0l0,0l0,0l0,0zm-3.021,-0.716l2.306,0l0,-1.224l0.84799,-0.815l0,-7.05899l-0.453,0l0,3.29501l-0.715,0l0,-4.17201l-0.45499,0l0,4.17201l-0.715,0l0,-4.60899l-0.453,0l0,4.60899l-0.715,0l0,-4.17201l-0.45502,0l0,5.74699l-0.72104,0l-1.61298,-2.216l-0.08002,0l-0.207,0.39801l0.32602,0.89499l1.60898,2.86601l1.49301,1.02299l0,1.26199l0,0l0,0l0,0l0,0l0.00003,0z" id="svg_411"/>
    </g>
   </g>
   <g id="svg_439">
    <circle fill="url(#grey_grad)" cx="442.77693" cy="255.25" r="6.562" id="svg_440"/></g>
   <g id="svg_501">
    <rect x="426.74993" y="171.904" fill="#424242" width="32.057" height="43.006" id="svg_502"/>
    <g id="svg_503">
     <polygon fill="#595959" points="428.3359375,215.14801025390625 426.74993896484375,220.2270050048828 426.74993896484375,166.5880126953125 428.3359375,171.66600036621094 " id="svg_504"/>
     <polygon fill="#595959" points="436.7479248046875,215.14801025390625 435.1599426269531,220.2270050048828 435.1599426269531,166.5880126953125 436.7479248046875,171.66600036621094 " id="svg_505"/>
     <polygon fill="#595959" points="457.21893310546875,215.14801025390625 458.8069152832031,220.2270050048828 458.8069152832031,166.5880126953125 457.21893310546875,171.66600036621094 " id="svg_506"/>
     <polygon fill="#595959" points="448.8089294433594,215.14801025390625 450.3949279785156,220.2270050048828 450.3949279785156,166.5880126953125 448.8089294433594,171.66600036621094 " id="svg_507"/>
    </g>
    <g id="svg_508">
     <polygon fill="#595959" points="443.919921875,166.5880126953125 443.1759338378906,166.5880126953125 443.1759338378906,168.6510009765625 442.38092041015625,168.6510009765625 442.38092041015625,166.5880126953125 441.5409240722656,166.5880126953125 440.7149353027344,171.66600036621094 440.7149353027344,215.14801025390625 441.5409240722656,220.2270050048828 442.38092041015625,220.2270050048828 442.38092041015625,218.4810028076172 443.1759338378906,218.4810028076172 443.1759338378906,220.2270050048828 443.919921875,220.2270050048828 444.8419189453125,215.14801025390625 444.8419189453125,171.66600036621094 " id="svg_509"/>
     <polygon points="426.03692626953125,168.1750030517578 425.2409362792969,168.1750030517578 425.2409362792969,166.5880126953125 424.52691650390625,166.5880126953125 424.52691650390625,220.2270050048828 425.2409362792969,220.2270050048828 425.2409362792969,218.4810028076172 426.03692626953125,218.4810028076172 426.03692626953125,220.2270050048828 426.74993896484375,220.2270050048828 426.74993896484375,166.5880126953125 426.03692626953125,166.5880126953125 " id="svg_510"/>
     <polygon points="434.4469299316406,168.1750030517578 433.65191650390625,168.1750030517578 433.65191650390625,166.5880126953125 432.9389343261719,166.5880126953125 432.9389343261719,220.2270050048828 433.65191650390625,220.2270050048828 433.65191650390625,218.4810028076172 434.4469299316406,218.4810028076172 434.4469299316406,220.2270050048828 435.1599426269531,220.2270050048828 435.1599426269531,166.5880126953125 434.4469299316406,166.5880126953125 " id="svg_511"/>
     <polygon points="443.1759338378906,168.1750030517578 442.38092041015625,168.1750030517578 442.38092041015625,166.5880126953125 441.5409240722656,166.5880126953125 441.5409240722656,220.2270050048828 442.38092041015625,220.2270050048828 442.38092041015625,218.4810028076172 443.1759338378906,218.4810028076172 443.1759338378906,220.2270050048828 443.919921875,220.2270050048828 443.919921875,166.5880126953125 443.1759338378906,166.5880126953125 " id="svg_512"/>
     <polygon points="451.9039306640625,168.1750030517578 451.1079406738281,168.1750030517578 451.1079406738281,166.5880126953125 450.3949279785156,166.5880126953125 450.3949279785156,220.2270050048828 451.1079406738281,220.2270050048828 451.1079406738281,218.4810028076172 451.9039306640625,218.4810028076172 451.9039306640625,220.2270050048828 452.616943359375,220.2270050048828 452.616943359375,166.5880126953125 451.9039306640625,166.5880126953125 " id="svg_513"/>
     <polygon points="461.02691650390625,166.5880126953125 460.31494140625,166.5880126953125 460.31494140625,168.1750030517578 459.5199279785156,168.1750030517578 459.5199279785156,166.5880126953125 458.8069152832031,166.5880126953125 458.8069152832031,220.2270050048828 459.5199279785156,220.2270050048828 459.5199279785156,218.4810028076172 460.31494140625,218.4810028076172 460.31494140625,220.2270050048828 461.02691650390625,220.2270050048828 " id="svg_514"/>
    </g>
    <rect x="426.74993" y="177.379" fill="#BABABA" width="32.057" height="32.057" id="svg_515"/>
    <rect x="434.36693" y="184.996" width="16.821" height="16.821" id="svg_516"/>
    <rect x="435.31893" y="185.949" fill="#BABABA" width="14.917" height="14.917" id="svg_517"/>
    <rect x="436.11293" y="186.742" fill="#BABABA" width="13.329" height="13.33" id="svg_518"/>
   </g>
  </g>
  <g id="svg_597" class="direction direction-5">
   <g id="svg_50">
    <rect x="511.19193" y="29.084" fill="#A1A1A1" width="12.5" height="64.167" id="svg_51"/>
    <rect x="513.69193" y="29.084" fill="#E4E5E6" width="12.5" height="12.5" id="svg_52"/>
    <rect x="513.69193" y="80.75" fill="#E4E5E6" width="12.5" height="12.5" id="svg_53"/>
    <rect x="515.69193" y="41.417" fill="#E4E5E6" width="12.5" height="39.333" id="svg_54"/>
    <g id="svg_55">
     <rect x="517.06693" y="42.996" width="9.89" height="9.888" id="svg_56"/>
     <rect x="517.62793" y="43.556" fill="#BABABA" width="8.769" height="8.77" id="svg_57"/>
     <rect x="518.09393" y="44.022" fill="#BABABA" width="7.837" height="7.836" id="svg_58"/>
    </g>
    <polygon fill="#0E0C0D" points="528.3579711914062,56.756996154785156 516.8579711914062,56.756996154785156 516.8579711914062,61.204002380371094 518.2399291992188,61.204002380371094 518.2399291992188,68.40999603271484 525.5999755859375,68.40999603271484 525.5999755859375,61.204002380371094 528.3579711914062,61.204002380371094 " id="svg_59"/>
    <circle fill="#718C10" cx="519.94193" cy="35.334" r="2.5" id="svg_60"/>
    <circle fill="#718C10" cx="519.94193" cy="87" r="2.5" id="svg_61"/>
   </g>
   <g id="svg_166">
    <text transform="matrix(1,0,0,1,493.1816,102.0212) " fill="#666666" font-family="&#x27;Tahoma'" font-size="10.2435" id="svg_167" y="-22.734" x="-4.20407">QF
                  5</text>
   </g>
   <g id="svg_184">
    <text transform="matrix(1,0,0,1,499.1885,171.0212) " fill="#666666" font-family="&#x27;Tahoma'" font-size="10.2435" id="svg_185" y="-22.734" x="-4.20407">KM
                                5</text>
   </g>
   <g id="svg_198">
    <text transform="matrix(1,0,0,1,504.3955,316.8552) " fill="#666666" font-family="&#x27;Tahoma'" font-size="10.2435" id="svg_199" y="-22.734" x="-4.20407">ОП
                                              гр. 5</text>
   </g>
   <g id="svg_258">
    <g id="svg_259">
     <rect x="540.52693" y="197.477" fill="#F5F5F5" width="15" height="22.25" id="svg_260"/>
     <path fill="#8F8F8F" d="m555.02698,197.97701l0,21.25l-14,0l0,-21.25l14,0m1,-1l-16,0l0,23.25l16,0l0,-23.25l0,0z" id="svg_261"/>
    </g>
    <g id="svg_262">
     <line fill="none" stroke="#39B54A" stroke-miterlimit="10" x1="549.96493" y1="198.727" x2="549.96493" y2="205.977" id="svg_263"/>
     <polyline fill="none" stroke="#39B54A" stroke-miterlimit="10" points="549.9649658203125,218.7270050048828 549.9649658203125,213.7270050048828 543.7459716796875,207.5080108642578 " id="svg_264"/>
     <line fill="none" stroke="#39B54A" stroke-miterlimit="10" x1="548.33993" y1="205.977" x2="551.58993" y2="205.977" id="svg_265"/>
    </g>
   </g>
   <line fill="none" stroke="#002D8E" stroke-miterlimit="10" x1="519.77693" y1="92.75" x2="519.77693" y2="283" id="svg_294"/>
   <line fill="none" stroke="#002D8E" stroke-miterlimit="10" x1="519.77693" y1="6.25" x2="519.77693" y2="29" id="svg_306"/>
   <circle fill="#002883" class="direction-info direction-info-5" cx="519.77693" cy="3.75" r="3.75" id="svg_316"/>
   <g id="svg_412">
    <rect x="541.02793" y="166.588" width="16.82" height="16.821" id="svg_413"/>
    <rect x="541.98093" y="167.54" fill="#BABABA" width="14.917" height="14.917" id="svg_414"/>
    <rect x="542.77493" y="168.333" fill="#CFCF04" width="13.33" height="13.33" id="svg_415"/>
    <g id="svg_416">
     <polygon fill="#FFFFFF" points="548.4439697265625,169.87200927734375 549.6139526367188,169.87200927734375 549.6139526367188,174.4010009765625 549.6139526367188,169.4340057373047 550.781982421875,169.4340057373047 550.781982421875,174.4010009765625 550.781982421875,169.87200927734375 551.9509887695312,169.87200927734375 551.9509887695312,174.4010009765625 551.9509887695312,170.74900817871094 553.1199340820312,170.74900817871094 553.1199340820312,178.31700134277344 552.27294921875,179.13400268554688 552.27294921875,180.56201171875 549.2529296875,180.56201171875 549.2529296875,179.13400268554688 547.844970703125,178.16799926757812 546.1699829101562,175.177001953125 545.7899780273438,174.13400268554688 546.1699829101562,173.4040069580078 546.6499633789062,173.4040069580078 548.261962890625,175.62001037597656 548.4439697265625,175.62001037597656 " id="svg_417"/>
     <path d="m552.63,180.92l-3.73401,0l0,-1.59799l-1.32098,-0.90601l-1.71704,-3.064l-0.45795,-1.24301l0.55396,-1.062l0.88,0l1.255,1.72501l0,-5.256l1.16901,0l0,-0.438l1.88403,0l0,0.438l1.16998,0l0,0.877l1.16797,0l0,8.07799l-0.84796,0.81601l-0.00201,1.633l0,0l0,0l0,0l0,0zm-3.02002,-0.716l2.30499,0l0,-1.224l0.84802,-0.815l0,-7.05899l-0.453,0l0,3.29501l-0.716,0l0,-4.17201l-0.45398,0l0,4.17201l-0.71503,0l0,-4.60899l-0.453,0l0,4.60899l-0.716,0l0,-4.17201l-0.45398,0l0,5.74699l-0.72198,0l-1.612,-2.216l-0.08002,0l-0.20801,0.39801l0.32599,0.89499l1.60901,2.86601l1.495,1.02299l0,1.26199l0,0l0,0z" id="svg_418"/>
    </g>
   </g>
   <g id="svg_441">
    <circle fill="url(#grey_grad)" cx="519.77693" cy="255.25" r="6.562" id="svg_442"/>
   </g>
   <g id="svg_519">
    <rect x="503.75093" y="171.904" fill="#424242" width="32.057" height="43.006" id="svg_520"/>
    <g id="svg_521">
     <polygon fill="#595959" points="505.3369140625,215.14801025390625 503.75091552734375,220.2270050048828 503.75091552734375,166.5880126953125 505.3369140625,171.66600036621094 " id="svg_522"/>
     <polygon fill="#595959" points="513.7489624023438,215.14801025390625 512.1609497070312,220.2270050048828 512.1609497070312,166.5880126953125 513.7489624023438,171.66600036621094 " id="svg_523"/>
     <polygon fill="#595959" points="534.219970703125,215.14801025390625 535.8079833984375,220.2270050048828 535.8079833984375,166.5880126953125 534.219970703125,171.66600036621094 " id="svg_524"/>
     <polygon fill="#595959" points="525.8099365234375,215.14801025390625 527.3959350585938,220.2270050048828 527.3959350585938,166.5880126953125 525.8099365234375,171.66600036621094 " id="svg_525"/>
    </g>
    <g id="svg_526">
     <polygon fill="#595959" points="520.9209594726562,166.5880126953125 520.1769409179688,166.5880126953125 520.1769409179688,168.6510009765625 519.3819580078125,168.6510009765625 519.3819580078125,166.5880126953125 518.5419311523438,166.5880126953125 517.7159423828125,171.66600036621094 517.7159423828125,215.14801025390625 518.5419311523438,220.2270050048828 519.3819580078125,220.2270050048828 519.3819580078125,218.4810028076172 520.1769409179688,218.4810028076172 520.1769409179688,220.2270050048828 520.9209594726562,220.2270050048828 521.8429565429688,215.14801025390625 521.8429565429688,171.66600036621094 " id="svg_527"/>
     <polygon points="503.0379333496094,168.1750030517578 502.2409362792969,168.1750030517578 502.2409362792969,166.5880126953125 501.5279235839844,166.5880126953125 501.5279235839844,220.2270050048828 502.2409362792969,220.2270050048828 502.2409362792969,218.4810028076172 503.0379333496094,218.4810028076172 503.0379333496094,220.2270050048828 503.75091552734375,220.2270050048828 503.75091552734375,166.5880126953125 503.0379333496094,166.5880126953125 " id="svg_528"/>
     <polygon points="511.4479064941406,168.1750030517578 510.6529235839844,168.1750030517578 510.6529235839844,166.5880126953125 509.9389343261719,166.5880126953125 509.9389343261719,220.2270050048828 510.6529235839844,220.2270050048828 510.6529235839844,218.4810028076172 511.4479064941406,218.4810028076172 511.4479064941406,220.2270050048828 512.1609497070312,220.2270050048828 512.1609497070312,166.5880126953125 511.4479064941406,166.5880126953125 " id="svg_529"/>
     <polygon points="520.1769409179688,168.1750030517578 519.3819580078125,168.1750030517578 519.3819580078125,166.5880126953125 518.5419311523438,166.5880126953125 518.5419311523438,220.2270050048828 519.3819580078125,220.2270050048828 519.3819580078125,218.4810028076172 520.1769409179688,218.4810028076172 520.1769409179688,220.2270050048828 520.9209594726562,220.2270050048828 520.9209594726562,166.5880126953125 520.1769409179688,166.5880126953125 " id="svg_530"/>
     <polygon points="528.9049682617188,168.1750030517578 528.1099853515625,168.1750030517578 528.1099853515625,166.5880126953125 527.3959350585938,166.5880126953125 527.3959350585938,220.2270050048828 528.1099853515625,220.2270050048828 528.1099853515625,218.4810028076172 528.9049682617188,218.4810028076172 528.9049682617188,220.2270050048828 529.6179809570312,220.2270050048828 529.6179809570312,166.5880126953125 528.9049682617188,166.5880126953125 " id="svg_531"/>
     <polygon points="538.0279541015625,166.5880126953125 537.3159790039062,166.5880126953125 537.3159790039062,168.1750030517578 536.5209350585938,168.1750030517578 536.5209350585938,166.5880126953125 535.8079833984375,166.5880126953125 535.8079833984375,220.2270050048828 536.5209350585938,220.2270050048828 536.5209350585938,218.4810028076172 537.3159790039062,218.4810028076172 537.3159790039062,220.2270050048828 538.0279541015625,220.2270050048828 " id="svg_532"/>
    </g>
    <rect x="503.75093" y="177.379" fill="#BABABA" width="32.057" height="32.057" id="svg_533"/>
    <rect x="511.36793" y="184.996" width="16.822" height="16.821" id="svg_534"/>
    <rect x="512.31893" y="185.949" fill="#BABABA" width="14.918" height="14.917" id="svg_535"/>
    <rect x="513.11393" y="186.742" fill="#BABABA" width="13.33" height="13.33" id="svg_536"/>
   </g>
  </g>
  <g id="svg_598" class="direction direction-6">
   <g id="svg_62">
    <rect x="588.19193" y="29.084" fill="#A1A1A1" width="12.5" height="64.167" id="svg_63"/>
    <rect x="590.69193" y="29.084" fill="#E4E5E6" width="12.5" height="12.5" id="svg_64"/>
    <rect x="590.69193" y="80.75" fill="#E4E5E6" width="12.5" height="12.5" id="svg_65"/>
    <rect x="592.69193" y="41.417" fill="#E4E5E6" width="12.5" height="39.333" id="svg_66"/>
    <g id="svg_67">
     <rect x="594.06693" y="42.996" width="9.89" height="9.888" id="svg_68"/>
     <rect x="594.62793" y="43.556" fill="#BABABA" width="8.769" height="8.77" id="svg_69"/>
     <rect x="595.09393" y="44.022" fill="#BABABA" width="7.837" height="7.836" id="svg_70"/>
    </g>
    <polygon fill="#0E0C0D" points="605.3579711914062,56.756996154785156 593.8579711914062,56.756996154785156 593.8579711914062,61.204002380371094 595.2399291992188,61.204002380371094 595.2399291992188,68.40999603271484 602.5999755859375,68.40999603271484 602.5999755859375,61.204002380371094 605.3579711914062,61.204002380371094 " id="svg_71"/>
    <circle fill="#718C10" cx="596.94193" cy="35.334" r="2.5" id="svg_72"/>
    <circle fill="#718C10" cx="596.94193" cy="87" r="2.5" id="svg_73"/>
   </g>
   <g id="svg_168">
    <text transform="matrix(1,0,0,1,570.1816,102.0212) " fill="#666666" font-family="&#x27;Tahoma'" font-size="10.2435" id="svg_169" y="-22.734" x="-4.20407">QF
                    6</text>
   </g>
   <g id="svg_186">
    <text transform="matrix(1,0,0,1,576.1895,171.0212) " fill="#666666" font-family="&#x27;Tahoma'" font-size="10.2435" id="svg_187" y="-22.734" x="-4.20407">KM
                                  6</text>
   </g>
   <g id="svg_200">
    <text transform="matrix(1,0,0,1,581.3955,316.8552) " fill="#666666" font-family="&#x27;Tahoma'" font-size="10.2435" id="svg_201" y="-22.734" x="-4.20407">ОП
                                                гр. 6</text>
   </g>
   <g id="svg_266">
    <g id="svg_267">
     <rect x="617.52693" y="197.477" fill="#F5F5F5" width="15" height="22.25" id="svg_268"/>
     <path fill="#8F8F8F" d="m632.02698,197.97701l0,21.25l-14,0l0,-21.25l14,0m1,-1l-16,0l0,23.25l16,0l0,-23.25l0,0z" id="svg_269"/>
    </g>
    <g id="svg_270">
     <line fill="none" stroke="#39B54A" stroke-miterlimit="10" x1="626.96493" y1="198.727" x2="626.96493" y2="205.977" id="svg_271"/>
     <polyline fill="none" stroke="#39B54A" stroke-miterlimit="10" points="626.9649658203125,218.7270050048828 626.9649658203125,213.7270050048828 620.7459716796875,207.5080108642578 " id="svg_272"/>
     <line fill="none" stroke="#39B54A" stroke-miterlimit="10" x1="625.33993" y1="205.977" x2="628.58993" y2="205.977" id="svg_273"/>
    </g>
   </g>
   <line fill="none" stroke="#002D8E" stroke-miterlimit="10" x1="596.77693" y1="92.75" x2="596.77693" y2="283" id="svg_292"/>
   <line fill="none" stroke="#002D8E" stroke-miterlimit="10" x1="596.77693" y1="6.25" x2="596.77693" y2="29" id="svg_307"/>
   <circle fill="#002883" class="direction-info direction-info-6" cx="596.77693" cy="3.75" r="3.75" id="svg_317"/>
   <g id="svg_419">
    <rect x="618.02793" y="166.588" width="16.82" height="16.821" id="svg_420"/>
    <rect x="618.98093" y="167.54" fill="#BABABA" width="14.917" height="14.917" id="svg_421"/>
    <rect x="619.77493" y="168.333" fill="#CFCF04" width="13.33" height="13.33" id="svg_422"/>
    <g id="svg_423">
     <polygon fill="#FFFFFF" points="625.4439697265625,169.87200927734375 626.6139526367188,169.87200927734375 626.6139526367188,174.4010009765625 626.6139526367188,169.4340057373047 627.781982421875,169.4340057373047 627.781982421875,174.4010009765625 627.781982421875,169.87200927734375 628.9509887695312,169.87200927734375 628.9509887695312,174.4010009765625 628.9509887695312,170.74900817871094 630.1199340820312,170.74900817871094 630.1199340820312,178.31700134277344 629.27294921875,179.13400268554688 629.27294921875,180.56201171875 626.2529296875,180.56201171875 626.2529296875,179.13400268554688 624.844970703125,178.16799926757812 623.1699829101562,175.177001953125 622.7899780273438,174.13400268554688 623.1699829101562,173.4040069580078 623.6499633789062,173.4040069580078 625.261962890625,175.62001037597656 625.4439697265625,175.62001037597656 " id="svg_424"/>
     <path d="m629.63,180.92l-3.73401,0l0,-1.59799l-1.32098,-0.90601l-1.71704,-3.064l-0.45795,-1.24301l0.55396,-1.062l0.88,0l1.255,1.72501l0,-5.256l1.16901,0l0,-0.438l1.88403,0l0,0.438l1.16998,0l0,0.877l1.16797,0l0,8.07799l-0.84796,0.81601l-0.00201,1.633l0,0l0,0l0,0l0,0zm-3.02002,-0.716l2.30499,0l0,-1.224l0.84802,-0.815l0,-7.05899l-0.453,0l0,3.29501l-0.716,0l0,-4.17201l-0.45398,0l0,4.17201l-0.71503,0l0,-4.60899l-0.453,0l0,4.60899l-0.716,0l0,-4.17201l-0.45398,0l0,5.74699l-0.72198,0l-1.612,-2.216l-0.08002,0l-0.20801,0.39801l0.32599,0.89499l1.60901,2.86601l1.495,1.02299l0,1.26199l0,0l0,0z" id="svg_425"/>
    </g>
   </g>
   <g id="svg_443">
    <circle fill="url(#grey_grad)" cx="596.77693" cy="255.25" r="6.562" id="svg_444"/>
   </g>
   <g id="svg_537">
    <rect x="580.75093" y="171.904" fill="#424242" width="32.057" height="43.006" id="svg_538"/>
    <g id="svg_539">
     <polygon fill="#595959" points="582.3369750976562,215.14801025390625 580.7509765625,220.2270050048828 580.7509765625,166.5880126953125 582.3369750976562,171.66600036621094 " id="svg_540"/>
     <polygon fill="#595959" points="590.7489624023438,215.14801025390625 589.1609497070312,220.2270050048828 589.1609497070312,166.5880126953125 590.7489624023438,171.66600036621094 " id="svg_541"/>
     <polygon fill="#595959" points="611.219970703125,215.14801025390625 612.8079833984375,220.2270050048828 612.8079833984375,166.5880126953125 611.219970703125,171.66600036621094 " id="svg_542"/>
     <polygon fill="#595959" points="602.8099365234375,215.14801025390625 604.3959350585938,220.2270050048828 604.3959350585938,166.5880126953125 602.8099365234375,171.66600036621094 " id="svg_543"/>
    </g>
    <g id="svg_544">
     <polygon fill="#595959" points="597.9209594726562,166.5880126953125 597.1769409179688,166.5880126953125 597.1769409179688,168.6510009765625 596.3819580078125,168.6510009765625 596.3819580078125,166.5880126953125 595.5419311523438,166.5880126953125 594.7159423828125,171.66600036621094 594.7159423828125,215.14801025390625 595.5419311523438,220.2270050048828 596.3819580078125,220.2270050048828 596.3819580078125,218.4810028076172 597.1769409179688,218.4810028076172 597.1769409179688,220.2270050048828 597.9209594726562,220.2270050048828 598.8429565429688,215.14801025390625 598.8429565429688,171.66600036621094 " id="svg_545"/>
     <polygon points="580.0379638671875,168.1750030517578 579.240966796875,168.1750030517578 579.240966796875,166.5880126953125 578.5279541015625,166.5880126953125 578.5279541015625,220.2270050048828 579.240966796875,220.2270050048828 579.240966796875,218.4810028076172 580.0379638671875,218.4810028076172 580.0379638671875,220.2270050048828 580.7509765625,220.2270050048828 580.7509765625,166.5880126953125 580.0379638671875,166.5880126953125 " id="svg_546"/>
     <polygon points="588.4479370117188,168.1750030517578 587.6529541015625,168.1750030517578 587.6529541015625,166.5880126953125 586.93896484375,166.5880126953125 586.93896484375,220.2270050048828 587.6529541015625,220.2270050048828 587.6529541015625,218.4810028076172 588.4479370117188,218.4810028076172 588.4479370117188,220.2270050048828 589.1609497070312,220.2270050048828 589.1609497070312,166.5880126953125 588.4479370117188,166.5880126953125 " id="svg_547"/>
     <polygon points="597.1769409179688,168.1750030517578 596.3819580078125,168.1750030517578 596.3819580078125,166.5880126953125 595.5419311523438,166.5880126953125 595.5419311523438,220.2270050048828 596.3819580078125,220.2270050048828 596.3819580078125,218.4810028076172 597.1769409179688,218.4810028076172 597.1769409179688,220.2270050048828 597.9209594726562,220.2270050048828 597.9209594726562,166.5880126953125 597.1769409179688,166.5880126953125 " id="svg_548"/>
     <polygon points="605.9049682617188,168.1750030517578 605.1099853515625,168.1750030517578 605.1099853515625,166.5880126953125 604.3959350585938,166.5880126953125 604.3959350585938,220.2270050048828 605.1099853515625,220.2270050048828 605.1099853515625,218.4810028076172 605.9049682617188,218.4810028076172 605.9049682617188,220.2270050048828 606.6179809570312,220.2270050048828 606.6179809570312,166.5880126953125 605.9049682617188,166.5880126953125 " id="svg_549"/>
     <polygon points="615.0279541015625,166.5880126953125 614.3159790039062,166.5880126953125 614.3159790039062,168.1750030517578 613.5209350585938,168.1750030517578 613.5209350585938,166.5880126953125 612.8079833984375,166.5880126953125 612.8079833984375,220.2270050048828 613.5209350585938,220.2270050048828 613.5209350585938,218.4810028076172 614.3159790039062,218.4810028076172 614.3159790039062,220.2270050048828 615.0279541015625,220.2270050048828 " id="svg_550"/>
    </g>
    <rect x="580.75093" y="177.379" fill="#BABABA" width="32.057" height="32.057" id="svg_551"/>
    <rect x="588.36793" y="184.996" width="16.822" height="16.821" id="svg_552"/>
    <rect x="589.31893" y="185.949" fill="#BABABA" width="14.918" height="14.917" id="svg_553"/>
    <rect x="590.11393" y="186.742" fill="#BABABA" width="13.33" height="13.33" id="svg_554"/>
   </g>
  </g>
  <g id="svg_599" class="direction direction-7">
   <g id="svg_74">
    <rect x="665.19193" y="29.084" fill="#A1A1A1" width="12.5" height="64.167" id="svg_75"/>
    <rect x="667.69193" y="29.084" fill="#E4E5E6" width="12.5" height="12.5" id="svg_76"/>
    <rect x="667.69193" y="80.75" fill="#E4E5E6" width="12.5" height="12.5" id="svg_77"/>
    <rect x="669.69193" y="41.417" fill="#E4E5E6" width="12.5" height="39.333" id="svg_78"/>
    <g id="svg_79">
     <rect x="671.06693" y="42.996" width="9.89" height="9.888" id="svg_80"/>
     <rect x="671.62793" y="43.556" fill="#BABABA" width="8.769" height="8.77" id="svg_81"/>
     <rect x="672.09393" y="44.022" fill="#BABABA" width="7.837" height="7.836" id="svg_82"/>
    </g>
    <polygon fill="#0E0C0D" points="682.3579711914062,56.756996154785156 670.8579711914062,56.756996154785156 670.8579711914062,61.204002380371094 672.2399291992188,61.204002380371094 672.2399291992188,68.40999603271484 679.5999755859375,68.40999603271484 679.5999755859375,61.204002380371094 682.3579711914062,61.204002380371094 " id="svg_83"/>
    <circle fill="#718C10" cx="673.94193" cy="35.334" r="2.5" id="svg_84"/>
    <circle fill="#718C10" cx="673.94193" cy="87" r="2.5" id="svg_85"/>
   </g>
   <g id="svg_170">
    <text transform="matrix(1,0,0,1,647.1816,102.0212) " fill="#666666" font-family="&#x27;Tahoma'" font-size="10.2435" id="svg_171" y="-22.734" x="-4.20407">QF
                      7</text>
   </g>
   <g id="svg_188">
    <text transform="matrix(1,0,0,1,653.1895,171.0212) " fill="#666666" font-family="&#x27;Tahoma'" font-size="10.2435" id="svg_189" y="-22.734" x="-4.20407">KM
                                    7</text>
   </g>
   <g id="svg_202">
    <text transform="matrix(1,0,0,1,658.3955,316.8552) " fill="#666666" font-family="&#x27;Tahoma'" font-size="10.2435" id="svg_203" y="-22.734" x="-4.20407">ОП
                                                  гр. 7</text>
   </g>
   <g id="svg_274">
    <g id="svg_275">
     <rect x="694.52693" y="197.477" fill="#F5F5F5" width="15" height="22.25" id="svg_276"/>
     <path fill="#8F8F8F" d="m709.02698,197.97701l0,21.25l-14,0l0,-21.25l14,0m1,-1l-16,0l0,23.25l16,0l0,-23.25l0,0z" id="svg_277"/>
    </g>
    <g id="svg_278">
     <line fill="none" stroke="#39B54A" stroke-miterlimit="10" x1="703.96493" y1="198.727" x2="703.96493" y2="205.977" id="svg_279"/>
     <polyline fill="none" stroke="#39B54A" stroke-miterlimit="10" points="703.9649658203125,218.7270050048828 703.9649658203125,213.7270050048828 697.7459716796875,207.5080108642578 " id="svg_280"/>
     <line fill="none" stroke="#39B54A" stroke-miterlimit="10" x1="702.33993" y1="205.977" x2="705.58993" y2="205.977" id="svg_281"/>
    </g>
   </g>
   <line fill="none" stroke="#002D8E" stroke-miterlimit="10" x1="673.77693" y1="92.75" x2="673.77693" y2="283" id="svg_293"/>
   <line fill="none" stroke="#002D8E" stroke-miterlimit="10" x1="673.77693" y1="6.25" x2="673.77693" y2="29" id="svg_311"/>
   <circle fill="#002883" class="direction-info direction-info-7" cx="673.77693" cy="3.75" r="3.75" id="svg_318"/>
   <g id="svg_426">
    <rect x="695.02793" y="166.588" width="16.82" height="16.821" id="svg_427"/>
    <rect x="695.98093" y="167.54" fill="#BABABA" width="14.917" height="14.917" id="svg_428"/>
    <rect x="696.77493" y="168.333" fill="#CFCF04" width="13.33" height="13.33" id="svg_429"/>
    <g id="svg_430">
     <polygon fill="#FFFFFF" points="702.4439697265625,169.87200927734375 703.6139526367188,169.87200927734375 703.6139526367188,174.4010009765625 703.6139526367188,169.4340057373047 704.781982421875,169.4340057373047 704.781982421875,174.4010009765625 704.781982421875,169.87200927734375 705.9509887695312,169.87200927734375 705.9509887695312,174.4010009765625 705.9509887695312,170.74900817871094 707.1199340820312,170.74900817871094 707.1199340820312,178.31700134277344 706.27294921875,179.13400268554688 706.27294921875,180.56201171875 703.2529296875,180.56201171875 703.2529296875,179.13400268554688 701.844970703125,178.16799926757812 700.1699829101562,175.177001953125 699.7899780273438,174.13400268554688 700.1699829101562,173.4040069580078 700.6499633789062,173.4040069580078 702.261962890625,175.62001037597656 702.4439697265625,175.62001037597656 " id="svg_431"/>
     <path d="m706.63,180.92l-3.73401,0l0,-1.59799l-1.32098,-0.90601l-1.71704,-3.064l-0.45795,-1.24301l0.55396,-1.062l0.88,0l1.255,1.72501l0,-5.256l1.16901,0l0,-0.438l1.88403,0l0,0.438l1.16998,0l0,0.877l1.16797,0l0,8.07799l-0.84796,0.81601l-0.00201,1.633l0,0l0,0l0,0l0,0zm-3.02002,-0.716l2.30499,0l0,-1.224l0.84802,-0.815l0,-7.05899l-0.453,0l0,3.29501l-0.716,0l0,-4.17201l-0.45398,0l0,4.17201l-0.71503,0l0,-4.60899l-0.453,0l0,4.60899l-0.716,0l0,-4.17201l-0.45398,0l0,5.74699l-0.72198,0l-1.612,-2.216l-0.08002,0l-0.20801,0.39801l0.32599,0.89499l1.60901,2.86601l1.495,1.02299l0,1.26199l0,0l0,0z" id="svg_432"/>
    </g>
   </g>
   <g id="svg_445">
    <circle fill="url(#grey_grad)" cx="673.77693" cy="255.25" r="6.562" id="svg_446"/>
   </g>
   <g id="svg_555">
    <rect x="657.75093" y="171.904" fill="#424242" width="32.057" height="43.006" id="svg_556"/>
    <g id="svg_557">
     <polygon fill="#595959" points="659.3369750976562,215.14801025390625 657.7509765625,220.2270050048828 657.7509765625,166.5880126953125 659.3369750976562,171.66600036621094 " id="svg_558"/>
     <polygon fill="#595959" points="667.7489624023438,215.14801025390625 666.1609497070312,220.2270050048828 666.1609497070312,166.5880126953125 667.7489624023438,171.66600036621094 " id="svg_559"/>
     <polygon fill="#595959" points="688.219970703125,215.14801025390625 689.8079833984375,220.2270050048828 689.8079833984375,166.5880126953125 688.219970703125,171.66600036621094 " id="svg_560"/>
     <polygon fill="#595959" points="679.8099365234375,215.14801025390625 681.3959350585938,220.2270050048828 681.3959350585938,166.5880126953125 679.8099365234375,171.66600036621094 " id="svg_561"/>
    </g>
    <g id="svg_562">
     <polygon fill="#595959" points="674.9209594726562,166.5880126953125 674.1769409179688,166.5880126953125 674.1769409179688,168.6510009765625 673.3819580078125,168.6510009765625 673.3819580078125,166.5880126953125 672.5419311523438,166.5880126953125 671.7159423828125,171.66600036621094 671.7159423828125,215.14801025390625 672.5419311523438,220.2270050048828 673.3819580078125,220.2270050048828 673.3819580078125,218.4810028076172 674.1769409179688,218.4810028076172 674.1769409179688,220.2270050048828 674.9209594726562,220.2270050048828 675.8429565429688,215.14801025390625 675.8429565429688,171.66600036621094 " id="svg_563"/>
     <polygon points="657.0379638671875,168.1750030517578 656.240966796875,168.1750030517578 656.240966796875,166.5880126953125 655.5279541015625,166.5880126953125 655.5279541015625,220.2270050048828 656.240966796875,220.2270050048828 656.240966796875,218.4810028076172 657.0379638671875,218.4810028076172 657.0379638671875,220.2270050048828 657.7509765625,220.2270050048828 657.7509765625,166.5880126953125 657.0379638671875,166.5880126953125 " id="svg_564"/>
     <polygon points="665.4479370117188,168.1750030517578 664.6529541015625,168.1750030517578 664.6529541015625,166.5880126953125 663.93896484375,166.5880126953125 663.93896484375,220.2270050048828 664.6529541015625,220.2270050048828 664.6529541015625,218.4810028076172 665.4479370117188,218.4810028076172 665.4479370117188,220.2270050048828 666.1609497070312,220.2270050048828 666.1609497070312,166.5880126953125 665.4479370117188,166.5880126953125 " id="svg_565"/>
     <polygon points="674.1769409179688,168.1750030517578 673.3819580078125,168.1750030517578 673.3819580078125,166.5880126953125 672.5419311523438,166.5880126953125 672.5419311523438,220.2270050048828 673.3819580078125,220.2270050048828 673.3819580078125,218.4810028076172 674.1769409179688,218.4810028076172 674.1769409179688,220.2270050048828 674.9209594726562,220.2270050048828 674.9209594726562,166.5880126953125 674.1769409179688,166.5880126953125 " id="svg_566"/>
     <polygon points="682.9049682617188,168.1750030517578 682.1099853515625,168.1750030517578 682.1099853515625,166.5880126953125 681.3959350585938,166.5880126953125 681.3959350585938,220.2270050048828 682.1099853515625,220.2270050048828 682.1099853515625,218.4810028076172 682.9049682617188,218.4810028076172 682.9049682617188,220.2270050048828 683.6179809570312,220.2270050048828 683.6179809570312,166.5880126953125 682.9049682617188,166.5880126953125 " id="svg_567"/>
     <polygon points="692.0279541015625,166.5880126953125 691.3159790039062,166.5880126953125 691.3159790039062,168.1750030517578 690.5209350585938,168.1750030517578 690.5209350585938,166.5880126953125 689.8079833984375,166.5880126953125 689.8079833984375,220.2270050048828 690.5209350585938,220.2270050048828 690.5209350585938,218.4810028076172 691.3159790039062,218.4810028076172 691.3159790039062,220.2270050048828 692.0279541015625,220.2270050048828 " id="svg_568"/>
    </g>
    <rect x="657.75093" y="177.379" fill="#BABABA" width="32.057" height="32.057" id="svg_569"/>
    <rect x="665.36793" y="184.996" width="16.822" height="16.821" id="svg_570"/>
    <rect x="666.31893" y="185.949" fill="#BABABA" width="14.918" height="14.917" id="svg_571"/>
    <rect x="667.11393" y="186.742" fill="#BABABA" width="13.33" height="13.33" id="svg_572"/>
   </g>
  </g>
 </g>
</svg>
