<?xml version="1.0" ?><!DOCTYPE svg  PUBLIC '-//W3C//DTD SVG 1.1//EN'  'http://www.w3.org/Graphics/SVG/1.1/DTD/svg11.dtd'><svg enable-background="new 0 0 512 512" height="30px" id="Layer_1" version="1.1" viewBox="0 0 512 512" width="30px" xml:space="preserve" xmlns="http://www.w3.org/2000/svg" xmlns:xlink="http://www.w3.org/1999/xlink"><g><circle cx="255.98" cy="258.354" fill="orange" r="129.364"/><path d="M264.678,131.38c-34.836,0-66.201,14.847-88.125,38.551    c19.609-13.947,43.59-22.148,69.486-22.148c66.285,0,120.023,53.737,120.023,120.025c0,31.451-12.104,60.071-31.899,81.474    c30.587-21.753,50.538-57.484,50.538-97.877C384.701,185.117,330.965,131.38,264.678,131.38z" fill="#292826" fill-opacity="0.1"/><polygon fill="orange" points="157.69,492.269 165.237,436.957 172.785,381.646 199.179,392.637 225.572,403.627     191.631,447.947   "/><polygon fill="orange" points="354.099,20.604 346.552,75.915 339.004,131.228 312.61,120.236 286.216,109.246 320.158,64.924       "/><polygon fill="orange" points="19.931,160.041 75.242,167.589 130.553,175.137 119.563,201.529 108.571,227.923 64.251,193.982       "/><polygon fill="orange" points="490.535,356.008 435.223,348.462 379.913,340.914 390.902,314.52 401.894,288.126     446.214,322.067   "/><polygon fill="orange" points="19.695,353.753 64.143,319.98 108.592,286.205 119.482,312.64 130.375,339.074 75.035,346.412       "/><polygon fill="orange" points="492.093,159.118 447.645,192.893 403.198,226.667 392.307,200.232 381.413,173.797     436.754,166.459   "/><polygon fill="orange" points="157.203,21.423 190.979,65.871 224.752,110.319 198.318,121.21 171.883,132.103 164.543,76.762       "/><polygon fill="orange" points="351.401,492.761 317.628,448.313 283.854,403.864 310.288,392.973 336.723,382.082     344.062,437.421   "/><path d="M255.981,98.406c-88.338,0-159.948,71.611-159.948,159.948c0,88.335,71.61,159.946,159.948,159.946    c88.336,0,159.948-71.611,159.948-159.946C415.93,170.017,344.317,98.406,255.981,98.406z M255.981,377.755    c-65.944,0-119.401-53.458-119.401-119.4c0-65.944,53.457-119.402,119.401-119.402c65.942,0,119.4,53.458,119.4,119.402    C375.382,324.297,321.924,377.755,255.981,377.755z" fill="#FBF1DC"/></g></svg>